<svg width="80" height="80" viewBox="0 0 80 80" fill="none" xmlns="http://www.w3.org/2000/svg">
<path d="M75.0387 40.0009L79.4599 32.3599C80.5652 30.4417 79.9084 27.9948 77.9982 26.8895L70.3492 22.4683V13.6579C70.3492 11.4433 68.559 9.65322 66.3444 9.65322H57.5381L53.1209 2.00822C52.5883 1.09115 51.7112 0.418353 50.69 0.142028C49.6648 -0.138302 48.5715 0.00987338 47.6504 0.5425L40.0014 4.9637L32.3524 0.538495C30.4342 -0.570811 27.9873 0.0899677 26.882 2.00422L22.4608 9.65322H13.6544C11.4398 9.65322 9.64973 11.4433 9.64973 13.6579V22.4643L2.00073 26.8855C1.07965 27.4181 0.410863 28.2952 0.138542 29.3204C-0.133778 30.3496 0.0103912 31.4389 0.539013 32.3599L4.96022 40.0009L0.539013 47.6419C0.00638652 48.563 -0.137782 49.6563 0.134538 50.6855C0.406858 51.7107 1.07564 52.5877 1.99673 53.1164L9.64573 57.5376V66.3439C9.64573 68.5585 11.4358 70.3486 13.6504 70.3486H22.4608L26.882 77.9976C27.4146 78.9147 28.2917 79.5835 29.3169 79.8638C29.6573 79.9519 30.0017 80 30.3501 80C31.0469 80 31.7397 79.8158 32.3564 79.4594L39.9974 75.0382L47.6464 79.4594C48.5635 79.992 49.6608 80.1321 50.686 79.8598C51.7112 79.5875 52.5883 78.9187 53.1169 77.9976L57.5341 70.3486H66.3404C68.555 70.3486 70.3451 68.5585 70.3451 66.3439V57.5376L77.9941 53.1164C79.9084 52.0071 80.5652 49.5562 79.4559 47.6419L75.0387 40.0009ZM29.9857 19.9373C33.3016 19.9373 35.9927 22.6285 35.9927 25.9444C35.9927 29.2603 33.3016 31.9515 29.9857 31.9515C26.6698 31.9515 23.9786 29.2603 23.9786 25.9444C23.9786 22.6285 26.6698 19.9373 29.9857 19.9373ZM31.1871 58.3826L24.7795 53.5809L48.8078 21.5432L55.2153 26.3449L31.1871 58.3826ZM50.0092 59.9844C46.6933 59.9844 44.0022 57.2933 44.0022 53.9774C44.0022 50.6615 46.6933 47.9703 50.0092 47.9703C53.3251 47.9703 56.0163 50.6615 56.0163 53.9774C56.0163 57.2933 53.3251 59.9844 50.0092 59.9844Z" fill="#669CDF"/>
</svg>
