<svg width="114" height="80" viewBox="0 0 114 80" fill="none" xmlns="http://www.w3.org/2000/svg">
<path d="M66.3125 46.25V46L64.8125 26C64.7708 25.4583 64.5417 24.9896 64.125 24.5938C63.7083 24.1979 63.2292 24 62.6875 24H51.0625C50.5208 24 50.0417 24.1979 49.625 24.5938C49.2083 24.9896 48.9792 25.4583 48.9375 26L47.4375 46V46.25C47.3958 46.75 47.5625 47.1667 47.9375 47.5C48.3125 47.8333 48.75 48 49.25 48H64.5C65 48 65.4375 47.8333 65.8125 47.5C66.1875 47.1667 66.3542 46.75 66.3125 46.25ZM113.75 75.4375C113.75 78.4792 112.792 80 110.875 80H66.875C67.4167 80 67.875 79.8021 68.25 79.4062C68.625 79.0104 68.7917 78.5417 68.75 78L67.5 62C67.4583 61.4583 67.2292 60.9896 66.8125 60.5938C66.3958 60.1979 65.9167 60 65.375 60H48.375C47.8333 60 47.3542 60.1979 46.9375 60.5938C46.5208 60.9896 46.2917 61.4583 46.25 62L45 78C44.9583 78.5417 45.125 79.0104 45.5 79.4062C45.875 79.8021 46.3333 80 46.875 80H2.875C0.958333 80 0 78.4792 0 75.4375C0 73.1875 0.541667 70.7708 1.625 68.1875L27.6875 2.9375C28.0208 2.14583 28.5625 1.45833 29.3125 0.875C30.0625 0.291667 30.8542 0 31.6875 0H52.875C52.3333 0 51.8542 0.197917 51.4375 0.59375C51.0208 0.989583 50.7917 1.45833 50.75 2L49.8125 14C49.7708 14.5833 49.9375 15.0625 50.3125 15.4375C50.6875 15.8125 51.1458 16 51.6875 16H62.0625C62.6042 16 63.0625 15.8125 63.4375 15.4375C63.8125 15.0625 63.9792 14.5833 63.9375 14L63 2C62.9583 1.45833 62.7292 0.989583 62.3125 0.59375C61.8958 0.197917 61.4167 0 60.875 0H82.0625C82.8958 0 83.6875 0.291667 84.4375 0.875C85.1875 1.45833 85.7292 2.14583 86.0625 2.9375L112.125 68.1875C113.208 70.7708 113.75 73.1875 113.75 75.4375Z" fill="#669CDF"/>
</svg>
