<?xml version="1.0" standalone="no"?>
<!DOCTYPE svg PUBLIC "-//W3C//DTD SVG 20010904//EN"
 "http://www.w3.org/TR/2001/REC-SVG-20010904/DTD/svg10.dtd">
<svg version="1.0" xmlns="http://www.w3.org/2000/svg"
 width="445.000000pt" height="445.000000pt" viewBox="0 0 445.000000 445.000000"
 preserveAspectRatio="xMidYMid meet">
<metadata>
Created by potrace 1.14, written by Peter Selinger 2001-2017
</metadata>
<g transform="translate(0.000000,445.000000) scale(0.100000,-0.100000)"
fill="#000000" stroke="none">
<path d="M2908 3612 c-101 -33 -193 -134 -220 -242 -6 -25 -11 -47 -10 -49 1
-4 253 -63 321 -76 36 -6 295 -64 367 -81 96 -22 96 -22 63 40 -16 30 -39 92
-50 138 -37 143 -80 202 -186 254 -48 24 -71 28 -147 30 -60 1 -107 -3 -138
-14z"/>
<path d="M2757 3238 c11 -69 66 -154 125 -192 68 -44 215 -55 293 -22 22 9 53
29 68 44 27 26 62 81 55 87 -2 1 -68 17 -148 34 -80 18 -163 36 -185 41 -208
50 -215 50 -208 8z"/>
<path d="M2729 3207 c-2 -3 -29 -7 -59 -11 -45 -5 -126 -23 -175 -40 -5 -2
-21 -7 -35 -12 -49 -14 -214 -105 -294 -161 -217 -151 -310 -257 -422 -483
l-43 -85 171 -3 171 -2 -20 -23 c-35 -38 -63 -100 -63 -140 0 -51 39 -90 111
-111 61 -18 183 -15 379 8 63 7 152 14 196 15 111 3 118 -5 111 -113 -8 -130
-69 -259 -178 -380 -57 -63 -67 -80 -43 -73 11 3 60 9 109 12 50 3 113 8 140
10 48 5 73 7 270 20 50 4 91 8 93 10 6 6 -50 52 -103 84 -29 18 -82 42 -118
54 l-64 22 53 125 c29 69 63 160 75 202 l23 78 -21 27 c-50 67 -287 162 -496
198 l-38 6 21 27 22 27 -47 10 c-82 18 -121 76 -117 175 1 35 12 59 47 112 64
93 181 202 231 215 50 12 97 0 123 -33 l21 -26 49 42 50 41 -36 32 c-20 18
-48 58 -63 90 -14 32 -28 56 -31 54z"/>
<path d="M2610 2953 c-72 -28 -221 -237 -220 -310 1 -65 45 -86 174 -85 300 3
541 14 573 27 30 13 33 18 33 58 0 51 14 67 65 74 30 4 40 0 65 -27 25 -27 33
-30 45 -20 33 28 12 93 -41 130 -68 46 -149 32 -235 -40 -50 -42 -62 -46 -178
-55 -42 -4 -87 -8 -101 -11 -41 -7 -138 -7 -149 1 -22 13 -11 54 25 90 43 44
55 75 47 115 -9 48 -55 71 -103 53z"/>
<path d="M1729 2926 c-2 -2 -31 -7 -64 -10 -33 -4 -67 -9 -75 -11 -8 -3 -37
-7 -65 -10 -27 -2 -61 -7 -75 -10 -14 -3 -41 -7 -60 -9 -19 -2 -57 -7 -85 -12
-27 -4 -57 -8 -65 -9 -142 -17 -170 -31 -170 -86 0 -30 34 -69 59 -69 13 0
299 40 463 65 81 12 174 25 186 25 22 0 52 40 52 70 0 36 -34 70 -70 70 -15 0
-29 -2 -31 -4z"/>
<path d="M3655 2879 c-71 -27 -134 -54 -141 -60 -6 -5 -30 -47 -52 -92 -39
-81 -61 -110 -78 -105 -12 3 -157 -13 -166 -19 -4 -2 4 -22 19 -43 l26 -40
117 0 118 0 65 -82 c35 -46 84 -112 108 -148 40 -59 44 -70 44 -127 0 -55 -7
-74 -63 -187 -110 -219 -215 -359 -293 -390 -44 -18 -177 -50 -244 -60 -39 -6
-57 -9 -115 -21 -23 -4 -63 -10 -137 -19 -37 -5 -190 -27 -228 -33 -68 -10
-245 -12 -273 -2 -97 34 -100 146 -8 300 48 81 69 143 70 209 1 80 -20 102
-100 105 -31 1 -73 -1 -93 -6 -20 -4 -58 -10 -86 -14 -27 -4 -59 -9 -70 -10
-11 -2 -155 -24 -320 -50 -165 -25 -313 -48 -330 -51 -43 -7 -70 -11 -160 -24
-44 -6 -91 -13 -105 -15 -14 -2 -45 -7 -70 -10 -25 -3 -56 -8 -70 -10 -14 -2
-50 -7 -80 -10 -74 -8 -156 -35 -180 -57 -25 -24 -27 -89 -3 -113 34 -35 74
-39 172 -20 14 2 45 7 70 10 25 3 57 7 71 10 14 2 93 13 175 25 83 12 161 23
175 26 14 2 45 7 70 10 25 3 52 7 60 9 37 11 142 19 222 18 101 -1 173 -22
235 -66 136 -97 108 -342 -64 -543 l-56 -67 49 8 c27 4 56 9 64 10 8 1 35 5
60 9 25 4 59 10 75 12 17 2 41 6 55 9 14 2 45 7 70 10 25 3 54 7 65 9 47 9
112 19 143 22 18 2 72 10 120 18 48 8 112 17 142 21 30 4 64 9 75 11 25 5 325
51 385 59 25 3 68 10 95 15 28 5 86 14 130 20 44 6 87 13 97 16 12 4 18 -4 23
-28 11 -50 39 -99 78 -136 34 -33 36 -34 103 -27 38 3 71 8 75 11 4 2 10 20
13 39 17 87 71 169 119 180 22 5 434 75 472 80 11 1 26 3 33 4 38 4 -21 151
-89 221 -22 23 -66 54 -97 68 -50 24 -69 27 -162 27 -58 0 -119 -4 -136 -8
l-31 -8 24 71 c37 111 31 226 -17 320 -10 19 -65 106 -123 193 -74 111 -100
157 -88 158 9 0 24 2 35 4 10 2 57 6 105 10 123 8 147 14 172 41 l23 25 -74
147 c-41 80 -83 155 -92 164 -29 29 -83 21 -223 -33z"/>
<path d="M895 2786 c-29 -29 -26 -71 6 -98 52 -44 117 -2 110 70 -2 22 -40 52
-66 52 -14 0 -37 -11 -50 -24z"/>
<path d="M1320 2555 c-85 -13 -175 -27 -199 -30 -210 -27 -246 -35 -268 -61
-27 -30 -29 -52 -5 -80 23 -28 48 -33 113 -23 30 5 74 11 99 14 25 3 56 8 70
10 37 7 69 11 240 35 175 24 206 33 217 64 12 38 12 45 -9 71 -24 31 -49 31
-258 0z"/>
<path d="M1505 2284 c-5 -2 -109 -17 -230 -34 -251 -36 -271 -38 -305 -45 -14
-3 -47 -8 -75 -10 -27 -3 -61 -7 -75 -10 -30 -6 -69 -12 -130 -20 -25 -3 -56
-8 -70 -10 -72 -11 -118 -18 -140 -20 -14 -1 -45 -6 -70 -9 -25 -4 -117 -18
-205 -31 -134 -20 -163 -28 -177 -46 -24 -29 -23 -64 3 -90 19 -19 29 -20 96
-15 41 3 78 8 82 10 4 3 36 8 71 11 36 4 67 8 70 10 4 2 33 6 66 10 32 3 66 7
74 10 8 2 38 6 65 10 28 3 61 7 75 10 14 2 41 6 60 9 19 3 132 19 250 36 118
17 229 33 245 35 17 3 46 7 65 10 19 3 50 8 68 10 18 2 50 7 72 10 22 3 54 8
72 10 87 11 115 19 136 38 44 40 14 109 -49 113 -19 1 -38 0 -44 -2z"/>
<path d="M1525 1610 c-22 -4 -62 -11 -90 -14 -57 -8 -108 -15 -146 -22 -15 -2
-47 -6 -70 -9 -24 -3 -55 -7 -69 -10 -14 -3 -43 -7 -65 -10 -22 -2 -53 -6 -70
-9 -16 -2 -50 -7 -75 -11 -60 -9 -84 -12 -160 -24 -36 -6 -85 -13 -110 -16
-176 -21 -292 -44 -305 -62 -31 -40 -3 -113 43 -113 16 0 187 23 262 35 14 2
61 9 105 15 44 6 91 13 105 15 14 2 75 11 135 19 61 9 121 18 135 20 24 4 58
9 145 21 22 3 69 10 105 15 36 5 85 12 110 16 142 19 177 39 166 98 -11 53
-52 65 -151 46z"/>
<path d="M4263 1412 l-51 -3 30 -58 c46 -90 39 -181 -18 -233 -31 -27 -97 -57
-133 -61 -45 -5 -105 11 -130 35 -12 10 -25 17 -29 14 -4 -2 -35 -8 -67 -11
-102 -12 -103 -14 -49 -68 157 -152 371 -161 510 -22 71 71 100 159 91 279 -3
45 -10 94 -16 109 -10 25 -15 27 -48 25 -21 -2 -61 -4 -90 -6z"/>
<path d="M1725 1359 c-27 -5 -72 -11 -100 -15 -27 -4 -59 -8 -70 -10 -11 -1
-42 -5 -70 -9 -27 -3 -57 -8 -65 -10 -8 -2 -40 -7 -70 -11 -76 -10 -144 -19
-210 -30 -14 -2 -47 -7 -75 -10 -89 -12 -121 -78 -63 -127 24 -20 46 -19 223
8 50 8 110 17 135 20 342 49 441 65 458 76 42 27 32 101 -17 117 -14 4 -48 5
-76 1z"/>
<path d="M3310 1238 c-25 -4 -65 -11 -90 -14 -48 -5 -87 -11 -135 -18 -104
-16 -247 -37 -285 -42 -25 -3 -54 -7 -65 -9 -11 -2 -56 -8 -101 -14 -44 -6
-89 -13 -100 -15 -10 -2 -46 -7 -79 -11 -32 -3 -62 -8 -65 -10 -3 -2 -32 -6
-65 -9 -33 -4 -67 -8 -75 -11 -8 -2 -37 -6 -65 -10 -45 -5 -222 -30 -285 -40
-14 -2 -45 -7 -70 -10 -25 -4 -67 -11 -94 -16 -27 -5 -50 -9 -52 -9 -2 0 -9
-12 -17 -27 -18 -38 -11 -70 19 -90 23 -15 34 -15 147 2 67 9 133 18 147 20
14 1 43 5 65 9 22 4 56 9 75 11 19 2 125 18 235 34 110 16 218 32 240 35 22 3
87 12 145 21 58 9 125 18 150 21 25 3 52 7 60 9 8 2 42 7 75 11 33 3 62 8 65
9 3 2 35 7 70 10 36 4 67 8 71 10 3 2 34 7 70 11 68 7 118 26 120 47 1 6 3 21
4 33 5 48 -45 75 -115 62z"/>
<path d="M802 1210 c-43 -40 -15 -120 42 -120 63 0 94 83 47 122 -30 24 -62
23 -89 -2z"/>
<path d="M1483 954 c-63 -63 29 -155 95 -94 29 27 28 65 -3 95 -31 32 -59 32
-92 -1z"/>
</g>
</svg>
