<svg width="20" height="20" viewBox="0 0 20 20" fill="none" xmlns="http://www.w3.org/2000/svg">
<path d="M19.9465 7.179C19.8175 6.801 19.4765 6.534 19.0785 6.503L13.3775 6.05L10.9105 0.589C10.7495 0.23 10.3925 0 9.99949 0C9.60649 0 9.24949 0.23 9.08849 0.588L6.62149 6.05L0.920491 6.503C0.529491 6.534 0.192491 6.791 0.0594905 7.16C-0.0735095 7.529 0.0204906 7.942 0.301491 8.216L4.51449 12.323L3.02449 18.775C2.93249 19.174 3.09349 19.589 3.43049 19.822C3.60249 19.94 3.80049 20 3.99949 20C4.19249 20 4.38649 19.944 4.55449 19.832L9.99949 16.202L15.4445 19.832C15.7925 20.064 16.2495 20.055 16.5895 19.808C16.9275 19.561 17.0765 19.128 16.9615 18.726L15.1325 12.326L19.6685 8.244C19.9655 7.976 20.0745 7.558 19.9465 7.179Z" fill="black"/>
</svg>
