<svg width="80" height="80" viewBox="0 0 80 80" fill="none" xmlns="http://www.w3.org/2000/svg">
<path d="M51.376 72H18C12.484 72 8 67.516 8 62C8 56.484 12.484 52 18 52H46C53.72 52 60 45.72 60 38C60 30.28 53.72 24 46 24H26.556C24.992 27.084 23.084 29.772 21.14 32H46C49.308 32 52 34.692 52 38C52 41.308 49.308 44 46 44H18C8.076 44 0 52.076 0 62C0 71.924 8.076 80 18 80H56.372C54.544 77.688 52.8 75.012 51.376 72ZM12 0C5.384 0 0 5.384 0 12C0 24.752 12 32 12 32C12 32 24 24.748 24 12C24 5.384 18.616 0 12 0ZM12 18C8.688 18 6 15.312 6 12C6 8.688 8.688 6 12 6C15.312 6 18 8.688 18 12C18 15.312 15.312 18 12 18Z" fill="#669CDF"/>
<path d="M68 48C61.384 48 56 53.384 56 60C56 72.752 68 80 68 80C68 80 80 72.748 80 60C80 53.384 74.616 48 68 48ZM68 66C64.688 66 62 63.312 62 60C62 56.688 64.688 54 68 54C71.312 54 74 56.688 74 60C74 63.312 71.312 66 68 66Z" fill="#669CDF"/>
</svg>
