<svg width="123" height="80" viewBox="0 0 123 80" fill="none" xmlns="http://www.w3.org/2000/svg">
<path d="M122.245 36.0511L106.016 0L88.4243 7.89779L89.6012 10.5304C85.8537 11.7383 81.7344 12.017 77.5532 11.3357C74.8277 10.9021 72.0712 10.9021 69.3767 11.3357C67.2396 11.6763 65.1026 12.3268 63.0894 13.2249C62.1603 13.6276 61.2621 14.1231 60.3639 14.6806L52.5281 18.5211C51.3202 18.3043 50.1123 18.1494 48.9044 18.0875C44.6303 17.9017 40.604 16.7867 37.1351 14.8355L38.8076 12.5436L23.1049 1.26984L0 33.3566L15.6407 44.6303L17.3132 42.3384C20.2865 45.0019 22.6094 48.4708 24.127 52.4661C24.2509 52.8068 24.3748 53.1165 24.5296 53.4572L22.5474 56.1827C20.5652 58.9392 21.1847 62.8107 23.9412 64.7929C24.8393 65.4433 25.8304 65.784 26.8525 65.9079C26.8525 66.2176 26.8835 66.5273 26.9144 66.837C27.1932 68.4475 28.0604 69.8722 29.3922 70.8633C30.4452 71.6376 31.7151 72.0403 32.9849 72.0403C33.1707 72.0403 33.3256 72.0403 33.5114 72.0093C33.8521 73.434 34.6883 74.6729 35.8962 75.5401C36.9803 76.3144 38.2501 76.717 39.489 76.717C40.1394 76.717 40.7898 76.6241 41.4092 76.4073C41.8428 77.3674 42.5242 78.2036 43.3914 78.8231C44.4444 79.5974 45.7143 80 46.9841 80C47.3248 80 47.6655 79.969 47.9752 79.9071C49.6167 79.6283 51.0414 78.7611 52.0015 77.4293L53.2404 75.6949L59.156 79.1018C60.2091 79.7213 61.386 80 62.501 80C64.3283 80 66.0937 79.2567 67.3326 77.832C68.0139 77.0267 68.5095 76.0976 68.7573 75.0755C69.9652 75.4781 71.235 75.571 72.5358 75.3542C74.6419 75.0135 76.4692 73.8676 77.7081 72.1332C78.5134 70.9872 79.0399 69.6554 79.1638 68.2927C79.2257 67.6732 79.2257 67.0538 79.1328 66.4654C81.3008 66.3415 83.3759 65.3813 84.8006 63.6469C86.0085 62.1912 86.628 60.4259 86.628 58.5676C87.0925 58.5985 87.5261 58.5676 87.9907 58.4746C89.6942 58.1959 91.1808 57.2667 92.1719 55.873C93.0081 54.6961 93.5347 53.3333 93.6895 51.8777C93.6895 51.8157 93.6895 51.7228 93.7205 51.6609C94.1541 51.1034 94.5567 50.5149 94.9284 49.9264C97.1893 46.3337 100.132 43.4533 103.508 41.4402L104.654 43.9489L122.245 36.0511ZM116.516 33.8831L106.853 38.2191L94.1851 10.0658L103.848 5.72977L116.516 33.8831ZM24.096 7.3403L32.7062 13.5346L15.7336 37.0732L14.6496 38.5908L6.03949 32.3964L24.096 7.3403ZM26.0782 58.7224L28.7727 54.9748L28.9276 54.758C28.9895 54.6651 29.0825 54.5722 29.1444 54.5103C29.2373 54.4483 29.2993 54.3554 29.3922 54.3244C29.3922 54.3244 29.4231 54.3244 29.4231 54.2935C29.5161 54.2315 29.609 54.2005 29.7019 54.1386H29.7329C29.8258 54.1076 29.9497 54.0767 30.0736 54.0457H30.1045C30.1665 54.0457 30.2594 54.0147 30.3213 54.0147C30.3523 54.0147 30.3833 54.0147 30.3833 54.0147C30.4452 54.0147 30.5381 54.0147 30.6001 54.0457C30.631 54.0457 30.662 54.0457 30.693 54.0457C30.7549 54.0457 30.8169 54.0767 30.8788 54.0767C30.9098 54.0767 30.9098 54.0767 30.9408 54.1076C31.0027 54.1386 31.0956 54.1696 31.1576 54.2005C31.1885 54.2005 31.1885 54.2315 31.2195 54.2315C31.2815 54.2625 31.3744 54.3244 31.4363 54.3554C31.9009 54.6961 32.1796 55.2226 32.1796 55.7801C32.1796 55.873 32.1796 55.935 32.1796 56.0279C32.1796 56.1208 32.1487 56.2137 32.1487 56.2757C32.0867 56.4925 31.9938 56.7093 31.8699 56.8951L29.0205 60.8595C28.4321 61.6647 27.2861 61.8506 26.4808 61.2621C25.6756 60.6736 25.4897 59.5277 26.0782 58.7224ZM31.9628 67.3326C31.5602 67.0538 31.3124 66.6202 31.2195 66.1556C31.1266 65.6601 31.2505 65.1955 31.5292 64.7929L37.9094 55.935C38.1882 55.5323 38.6218 55.2846 39.0863 55.1916C39.1793 55.1916 39.2722 55.1607 39.3651 55.1607H39.3961C39.489 55.1607 39.5509 55.1607 39.6438 55.1916H39.6748C39.7367 55.1916 39.8297 55.2226 39.8916 55.2536H39.9226C40.0155 55.2846 40.0774 55.3155 40.1394 55.3465C40.1703 55.3465 40.1703 55.3775 40.2013 55.3775C40.2633 55.4084 40.3562 55.4704 40.4181 55.5014C40.8208 55.7801 41.0685 56.2137 41.1614 56.6783C41.1924 56.8331 41.1924 56.988 41.1614 57.1738C41.1614 57.2977 41.1305 57.4526 41.0685 57.5765C41.0685 57.6074 41.0685 57.6384 41.0376 57.6384C41.0066 57.6694 41.0066 57.7313 40.9756 57.7623C40.9756 57.7933 40.9446 57.8242 40.9446 57.8552C40.9137 57.8862 40.8827 57.9481 40.8827 57.9791C40.8517 58.0101 40.8517 58.041 40.8207 58.072L34.4406 66.9299C34.1618 67.3326 33.7282 67.5803 33.2636 67.6732C32.83 67.7352 32.3345 67.6423 31.9628 67.3326ZM38.4359 72.0093C38.0333 71.7305 37.7855 71.2969 37.6926 70.8324C37.5997 70.3368 37.7236 69.8722 38.0023 69.4696L44.3825 60.6117C44.4444 60.5188 44.5064 60.4568 44.5993 60.3639C44.6303 60.3329 44.6303 60.333 44.6613 60.302C44.7232 60.24 44.8161 60.1781 44.909 60.1161C44.94 60.1161 44.94 60.0852 44.971 60.0852C45.0329 60.0542 45.1258 59.9923 45.2187 59.9613C45.2497 59.9613 45.2497 59.9613 45.2807 59.9303C45.3736 59.8993 45.4665 59.8684 45.5904 59.8374C45.6214 59.8374 45.6523 59.8374 45.6833 59.8064C45.7143 59.8064 45.7143 59.8064 45.7453 59.8064C45.8072 59.8064 45.8382 59.8064 45.9001 59.8064H45.9311C46.024 59.8064 46.1169 59.8064 46.1789 59.8374C46.1789 59.8374 46.1789 59.8374 46.2098 59.8374C46.3028 59.8374 46.3647 59.8684 46.4576 59.8993H46.4886C46.5815 59.9303 46.6434 59.9613 46.7364 59.9923C46.7364 59.9923 46.7673 59.9923 46.7673 60.0232C46.8293 60.0542 46.9222 60.1161 46.9841 60.1471C47.108 60.24 47.2319 60.3639 47.3248 60.4878C47.5726 60.7975 47.7275 61.1692 47.7275 61.5718C47.7275 61.6647 47.7275 61.7267 47.7275 61.8196C47.6965 61.9744 47.6655 62.1293 47.6345 62.2842C47.6345 62.3151 47.6036 62.3151 47.6036 62.3461C47.5416 62.47 47.4797 62.5939 47.4177 62.7178L41.0376 71.5757C40.3871 72.4119 39.2412 72.5978 38.4359 72.0093ZM47.2938 75.602C46.7983 75.6949 46.3337 75.571 45.9311 75.2923C45.5285 75.0135 45.2807 74.5799 45.1878 74.1154C45.0948 73.6198 45.2187 73.1552 45.4975 72.7526L48.3469 68.7882C48.3779 68.7263 48.4398 68.6953 48.4708 68.6643C48.5017 68.6334 48.5637 68.5714 48.5947 68.5405C48.6256 68.5095 48.6876 68.4785 48.7495 68.4166C48.7805 68.3856 48.8424 68.3546 48.8734 68.3237C48.9353 68.2927 48.9973 68.2617 49.0592 68.2307C49.0902 68.1998 49.1521 68.1998 49.1831 68.1688C49.307 68.1378 49.3999 68.1068 49.5238 68.0759C49.6167 68.0759 49.7096 68.0449 49.8026 68.0449C49.8335 68.0449 49.8335 68.0449 49.8645 68.0449C49.9574 68.0449 50.0194 68.0449 50.1123 68.0759C50.1432 68.0759 50.1432 68.0759 50.1742 68.0759C50.2362 68.0759 50.3291 68.1068 50.391 68.1378H50.422C50.4839 68.1688 50.5769 68.1998 50.6388 68.2307C50.6698 68.2307 50.6698 68.2617 50.7007 68.2617C50.7627 68.2927 50.8556 68.3546 50.9175 68.3856C51.4441 68.7573 51.7228 69.4077 51.6609 70.0581C51.6299 70.3678 51.506 70.6775 51.3202 70.9563L48.4708 74.9206C48.192 75.2613 47.7894 75.5401 47.2938 75.602ZM89.3844 51.4441C89.3225 52.1254 89.0747 52.7758 88.6721 53.3333C88.3314 53.7979 87.8668 54.0767 87.3093 54.1696C86.7518 54.2625 86.1943 54.1386 85.7607 53.7979L83.3449 52.0635L78.6063 48.6566C77.6462 47.9443 76.2834 48.192 75.571 49.1522C74.8587 50.1123 75.1065 51.475 76.0666 52.1874L80.8053 55.5943C81.6105 56.1827 82.1371 57.0809 82.2919 58.072C82.4158 59.0631 82.1371 60.0542 81.4866 60.8595C80.3097 62.3151 78.0178 62.5319 76.4073 61.386L75.9427 61.0453L75.9117 61.0143L70.0581 56.8022C69.098 56.0898 67.7352 56.3376 67.0228 57.2977C66.3105 58.2578 66.5583 59.6206 67.5184 60.3329L73.372 64.5451C74.3941 65.2884 74.9516 66.5583 74.8277 67.8591C74.7658 68.5095 74.549 69.098 74.1773 69.5935C73.6198 70.3678 72.7836 70.8943 71.8235 71.0492C70.8633 71.204 69.9032 70.9872 69.1289 70.3988L66.2795 68.3546C66.2795 68.3546 66.2486 68.3546 66.2486 68.3237L60.7046 64.3283C59.7445 63.616 58.3817 63.8637 57.6694 64.8238C56.957 65.784 57.2048 67.1467 58.1649 67.8591L63.7089 71.8544C64.2044 72.1951 64.4832 72.7216 64.5451 73.3101C64.607 73.8986 64.4212 74.487 64.0496 74.9516C63.3992 75.6949 62.2532 75.8498 61.2931 75.2923L55.6252 72.0403C55.6562 71.9473 55.6872 71.8854 55.7182 71.7925C55.7182 71.7615 55.7491 71.6996 55.7491 71.6686C55.7801 71.5757 55.8111 71.4828 55.8111 71.3899C55.8111 71.3589 55.842 71.3279 55.842 71.2969C55.873 71.204 55.873 71.0801 55.904 70.9872C55.904 70.9563 55.904 70.9253 55.935 70.8943C55.9659 70.7704 55.9659 70.6156 55.9969 70.4917C56.2137 68.2927 55.2536 66.1556 53.4572 64.8548C53.3024 64.7309 53.1475 64.638 52.9926 64.5451C52.9307 64.5141 52.8997 64.4832 52.8378 64.4522C52.7139 64.3902 52.621 64.3283 52.4971 64.2664C52.4352 64.2354 52.3732 64.2044 52.3113 64.1734C52.1874 64.1115 52.0945 64.0805 51.9706 64.0496C51.9086 64.0186 51.8467 63.9876 51.7848 63.9876C51.7538 63.9876 51.6918 63.9566 51.6609 63.9566V63.9257C51.6918 63.8637 51.7228 63.7708 51.7538 63.7089C51.7847 63.6469 51.7847 63.616 51.8157 63.554C51.8467 63.4611 51.8777 63.3991 51.8777 63.3062C51.8777 63.2443 51.9086 63.2133 51.9086 63.1514C51.9396 63.0585 51.9396 62.9655 51.9706 62.8726C51.9706 62.8417 52.0015 62.7797 52.0015 62.7487C52.0325 62.6249 52.0325 62.47 52.0635 62.3461C52.2803 60.1471 51.3202 58.0101 49.5238 56.7093C49.3689 56.5854 49.1831 56.4925 49.0283 56.3995C48.9663 56.3686 48.9353 56.3376 48.8734 56.3066C48.7495 56.2447 48.6256 56.1827 48.5017 56.1208C48.4398 56.0898 48.4088 56.0898 48.3469 56.0588C48.223 55.9969 48.0991 55.9659 47.9442 55.904C47.8823 55.873 47.8513 55.873 47.7894 55.842C47.6345 55.8111 47.5106 55.7491 47.3558 55.7182C47.3248 55.7182 47.2629 55.6872 47.2319 55.6872C47.077 55.6562 46.9222 55.6252 46.7673 55.5943C46.7364 55.5943 46.7054 55.5943 46.6744 55.5943C46.5196 55.5633 46.3337 55.5633 46.1789 55.5633C46.1479 55.5633 46.1169 55.5633 46.1169 55.5633C45.9311 55.5633 45.7453 55.5633 45.5904 55.5633H45.5594C45.5285 55.5633 45.4975 55.5633 45.4665 55.5633C45.4665 55.5323 45.4355 55.5014 45.4355 55.4704C45.4046 55.3465 45.3736 55.2226 45.3426 55.0987C45.3426 55.0368 45.3117 55.0058 45.2807 54.9439C45.2497 54.82 45.1878 54.6961 45.1258 54.5722C45.1258 54.5412 45.0949 54.5103 45.0949 54.4793C45.0329 54.3244 44.971 54.2005 44.878 54.0457C44.8471 54.0147 44.8471 53.9837 44.8161 53.9218C44.7542 53.8289 44.6922 53.705 44.6303 53.6121C44.5993 53.5811 44.5683 53.5192 44.5374 53.4882C44.4444 53.3643 44.3825 53.2404 44.2896 53.1475L44.2586 53.1165C44.1657 52.9926 44.0418 52.8688 43.9489 52.7449C43.9179 52.7139 43.887 52.6829 43.856 52.652C43.7631 52.559 43.6702 52.4661 43.5772 52.4042C43.5463 52.3732 43.5153 52.3422 43.4533 52.3113C43.3295 52.2183 43.2056 52.0945 43.0507 52.0015C41.7189 51.0414 40.0774 50.6388 38.4669 50.9175C38.2811 50.9485 38.0952 50.9795 37.9404 51.0414C37.9094 51.0414 37.8475 51.0724 37.8165 51.0724C37.6616 51.1034 37.5068 51.1653 37.3519 51.2273C37.3209 51.2273 37.3209 51.2273 37.29 51.2582C37.1351 51.3202 36.9493 51.3821 36.7944 51.475C36.7635 51.506 36.7015 51.506 36.6705 51.537C36.5467 51.5989 36.3918 51.6918 36.2679 51.7538C36.2369 51.7847 36.206 51.7848 36.175 51.7848C36.0201 51.8777 35.8962 51.9706 35.7414 52.0945C35.7104 52.1254 35.6794 52.1564 35.6485 52.1874C35.5865 52.2184 35.5556 52.2803 35.4936 52.3113C35.4007 52.1874 35.3078 52.0635 35.2149 51.9396C35.1839 51.9086 35.1529 51.8777 35.122 51.8467C35.06 51.7538 34.9671 51.6609 34.9052 51.5989C34.8742 51.5679 34.8432 51.537 34.7813 51.475C34.6883 51.3821 34.6264 51.3202 34.5335 51.2582C34.5025 51.2273 34.4715 51.1963 34.4096 51.1653C34.2857 51.0724 34.1618 50.9795 34.0379 50.8866C33.8831 50.7936 33.7282 50.6698 33.5734 50.6078C33.5424 50.5768 33.4804 50.5459 33.4495 50.5149C33.3256 50.453 33.2017 50.391 33.0778 50.3291C33.0468 50.2981 32.9849 50.2981 32.9539 50.2671C32.7991 50.2052 32.6752 50.1432 32.5203 50.0813C32.4584 50.0503 32.3655 50.0194 32.3035 50.0194C32.2106 49.9884 32.1487 49.9574 32.0557 49.9574C31.9319 49.9264 31.777 49.8955 31.6531 49.8645C31.5602 49.8335 31.4983 49.8335 31.4053 49.8335C31.3124 49.8335 31.2195 49.8026 31.1266 49.8026C31.0647 49.8026 30.9717 49.8026 30.9098 49.7716C30.7859 49.7716 30.631 49.7716 30.5072 49.7716C30.4142 49.7716 30.2904 49.7716 30.1974 49.7716C30.1045 49.7716 30.0426 49.7716 29.9497 49.8026C29.8258 49.8026 29.7019 49.8335 29.609 49.8335C29.578 49.8335 29.5161 49.8335 29.4851 49.8335C29.4541 49.8335 29.4232 49.8335 29.3922 49.8645C29.2683 49.8955 29.1444 49.9264 28.9895 49.9574C28.9276 49.9884 28.8347 49.9884 28.7727 50.0194C28.6489 50.0503 28.525 50.0813 28.4321 50.1432C28.3391 50.1742 28.2462 50.2052 28.1533 50.2362C28.0914 50.2671 28.0294 50.2981 27.9365 50.3291C26.1092 45.8072 23.3527 41.9357 19.8839 38.9315L34.5954 18.5211C37.5068 20.2555 40.7588 21.4634 44.2276 22.0828L42.3693 40.3871C42.0906 43.1436 44.1038 45.5904 46.8293 45.8691C49.3999 46.1169 51.8777 45.3736 53.8599 43.7631C55.842 42.1525 57.0809 39.8297 57.3597 37.29L57.8552 32.4894C60.3639 32.3964 62.8107 31.6531 64.9787 30.3833L87.9288 48.0991C88.0836 48.223 88.1765 48.3159 88.2695 48.3779L88.3004 48.4088C88.3314 48.4398 88.3933 48.5017 88.4243 48.5327L88.4863 48.5947C88.5172 48.6256 88.5172 48.6566 88.5482 48.6566L88.6101 48.7185C88.6411 48.7495 88.6721 48.7805 88.7031 48.8115L88.8889 49.0902C88.9818 49.2141 89.0437 49.338 89.0747 49.4309L89.1057 49.4928C89.1367 49.5548 89.1676 49.5858 89.1676 49.6477C89.1986 49.7096 89.2296 49.7716 89.2296 49.8335C89.2606 49.8955 89.2606 49.9574 89.2915 50.0194L89.3535 50.2052C89.3844 50.3601 89.4154 50.5149 89.4464 50.6388V50.7007C89.4464 50.7627 89.4464 50.8246 89.4773 50.8866V50.9175V51.0724C89.4154 51.1343 89.4154 51.2892 89.3844 51.4441ZM92.2029 46.2408L92.1719 46.1789C92.079 46.055 92.017 45.9621 91.9551 45.9001C91.9551 45.9001 91.9551 45.8691 91.9241 45.8691C91.8932 45.8382 91.8622 45.8072 91.8312 45.7453C91.8002 45.7143 91.8002 45.7143 91.7693 45.6833C91.7073 45.6214 91.6764 45.5594 91.6144 45.4975C91.5215 45.3736 91.3976 45.2807 91.3047 45.1878C91.2737 45.1568 91.2427 45.1258 91.2118 45.0949C91.1808 45.0639 91.1808 45.0639 91.1498 45.0329C91.1189 45.0019 91.1189 45.0019 91.0879 44.971C90.933 44.8471 90.7782 44.6922 90.5614 44.5374L65.0406 24.8393L63.7089 25.8304C61.5099 27.4719 58.8153 28.2462 56.0588 27.9675L53.8908 27.7507L52.9926 36.7015C52.8378 38.0952 52.1564 39.3651 51.0724 40.2633C49.9884 41.1614 48.5947 41.5641 47.2009 41.4092C46.8293 41.3782 46.5815 41.0376 46.6125 40.6969L48.1611 25.4897L59.2489 20.0387L62.3151 18.5211L62.501 18.4282C63.3062 17.9326 64.0805 17.53 64.8548 17.1893C66.5273 16.446 68.2927 15.8885 70.0581 15.6098C72.288 15.2381 74.5799 15.2381 76.8409 15.6098C81.8583 16.446 86.8448 16.0434 91.3666 14.5257L101.68 37.4758C98.0256 39.5819 94.7735 42.5552 92.2029 46.2408Z" fill="#669CDF"/>
<path d="M109.237 35.3078C109.361 35.3078 109.454 35.3387 109.578 35.3387C110.321 35.3387 111.034 35.091 111.591 34.6264C112.242 34.0689 112.675 33.3256 112.768 32.4584C112.861 31.5912 112.613 30.7549 112.056 30.1045C111.498 29.4541 110.755 29.0205 109.888 28.9276C109.021 28.8347 108.184 29.0825 107.534 29.6399C106.883 30.1974 106.45 30.9408 106.357 31.808C106.202 33.5734 107.503 35.1529 109.237 35.3078ZM108.525 32.0248C108.556 31.746 108.68 31.4983 108.897 31.3124C109.082 31.1576 109.299 31.0646 109.547 31.0646C109.578 31.0646 109.609 31.0646 109.64 31.0646C109.919 31.0956 110.166 31.2195 110.352 31.4363C110.538 31.6531 110.6 31.9319 110.569 32.2106C110.538 32.4893 110.414 32.7371 110.197 32.9229C109.981 33.1088 109.702 33.1707 109.423 33.1398C108.897 33.1088 108.494 32.5823 108.525 32.0248Z" fill="#669CDF"/>
<path d="M16.0743 31.9009C16.2602 30.1355 14.9594 28.556 13.194 28.3702C12.3268 28.2772 11.4905 28.525 10.8401 29.0825C10.1897 29.64 9.7561 30.3833 9.66319 31.2505C9.47736 33.0159 10.7782 34.5955 12.5436 34.7813C12.6674 34.7813 12.7604 34.8123 12.8842 34.8123C14.5258 34.7813 15.9195 33.5424 16.0743 31.9009ZM11.8622 31.4673C11.8932 31.1886 12.017 30.9408 12.2338 30.755C12.4197 30.6001 12.6365 30.5072 12.8842 30.5072C12.9152 30.5072 12.9462 30.5072 12.9772 30.5072C13.5347 30.5692 13.9683 31.0647 13.9063 31.6532C13.8444 32.2107 13.3488 32.6443 12.7604 32.5823C12.2029 32.5513 11.8002 32.0558 11.8622 31.4673Z" fill="#669CDF"/>
</svg>
