<svg width="166" height="50" viewBox="0 0 166 50" fill="none" xmlns="http://www.w3.org/2000/svg">
<path d="M99.8225 16.7975V22.3975H96.0425V20H89.0775V22.3975H85.2975V16.7975H85.6475C86.3592 16.7975 86.8608 16.3483 87.1525 15.45C87.4442 14.5517 87.6308 13.2275 87.7125 11.4775L87.8525 7.75H98.2125V16.7975H99.8225ZM91.3 11.8275C91.2533 13.0058 91.16 14.0092 91.02 14.8375C90.88 15.6542 90.6642 16.3075 90.3725 16.7975H94.1525V10.9525H91.335L91.3 11.8275Z" fill="#1C1C1C"/>
<path d="M110.625 13.5775C111.313 13.8225 111.838 14.19 112.2 14.68C112.561 15.1583 112.742 15.7475 112.742 16.4475C112.742 17.5442 112.304 18.4133 111.429 19.055C110.566 19.685 109.341 20 107.755 20H101.209V7.75H107.422C108.939 7.75 110.111 8.03 110.939 8.59C111.779 9.15 112.2 9.9375 112.2 10.9525C112.2 11.5358 112.06 12.0492 111.78 12.4925C111.511 12.9358 111.126 13.2975 110.625 13.5775ZM105.269 12.4575H107.019C107.696 12.4575 108.034 12.16 108.034 11.565C108.034 10.9467 107.696 10.6375 107.019 10.6375H105.269V12.4575ZM107.562 17.1125C108.239 17.1125 108.577 16.7858 108.577 16.1325C108.577 15.5025 108.239 15.1875 107.562 15.1875H105.269V17.1125H107.562Z" fill="#1C1C1C"/>
<path d="M122.86 17.865H118.205L117.382 20H113.182L118.537 7.75H122.597L127.952 20H123.682L122.86 17.865ZM121.722 14.89L120.532 11.81L119.342 14.89H121.722Z" fill="#1C1C1C"/>
<path d="M94.6425 31.2L98.265 37.5H93.61L91.265 33.0725H90.11V37.5H85.98V25.25H90.11V29.8175H91.37L93.9775 25.25H98.2825L94.6425 31.2Z" fill="#1C1C1C"/>
<path d="M105.252 37.78C103.934 37.78 102.749 37.5058 101.699 36.9575C100.649 36.4092 99.827 35.6508 99.232 34.6825C98.637 33.7025 98.3395 32.6 98.3395 31.375C98.3395 30.15 98.637 29.0533 99.232 28.085C99.827 27.105 100.649 26.3408 101.699 25.7925C102.749 25.2442 103.934 24.97 105.252 24.97C106.57 24.97 107.755 25.2442 108.805 25.7925C109.855 26.3408 110.677 27.105 111.272 28.085C111.867 29.0533 112.165 30.15 112.165 31.375C112.165 32.6 111.867 33.7025 111.272 34.6825C110.677 35.6508 109.855 36.4092 108.805 36.9575C107.755 37.5058 106.57 37.78 105.252 37.78ZM105.252 34.4375C105.765 34.4375 106.226 34.315 106.634 34.07C107.054 33.8133 107.387 33.4575 107.632 33.0025C107.877 32.5358 107.999 31.9933 107.999 31.375C107.999 30.7567 107.877 30.22 107.632 29.765C107.387 29.2983 107.054 28.9425 106.634 28.6975C106.226 28.4408 105.765 28.3125 105.252 28.3125C104.739 28.3125 104.272 28.4408 103.852 28.6975C103.444 28.9425 103.117 29.2983 102.872 29.765C102.627 30.22 102.504 30.7567 102.504 31.375C102.504 31.9933 102.627 32.5358 102.872 33.0025C103.117 33.4575 103.444 33.8133 103.852 34.07C104.272 34.315 104.739 34.4375 105.252 34.4375Z" fill="#1C1C1C"/>
<path d="M125.262 25.25V37.5H121.202V28.4525H118.402L118.367 29.87C118.32 31.62 118.18 33.055 117.947 34.175C117.713 35.295 117.305 36.17 116.722 36.8C116.138 37.4183 115.304 37.7275 114.219 37.7275C113.671 37.7275 113.087 37.6517 112.469 37.5L112.679 34.1925C112.831 34.2275 112.982 34.245 113.134 34.245C113.566 34.245 113.892 34.07 114.114 33.72C114.347 33.37 114.505 32.9033 114.587 32.32C114.668 31.7367 114.727 30.9725 114.762 30.0275L114.919 25.25H125.262Z" fill="#1C1C1C"/>
<path d="M137.61 34.385V37.5H127.425V25.25H137.383V28.365H131.485V29.8H136.665V32.775H131.485V34.385H137.61Z" fill="#1C1C1C"/>
<path d="M145.446 37.78C144.151 37.78 142.984 37.5117 141.946 36.975C140.907 36.4267 140.091 35.6683 139.496 34.7C138.912 33.72 138.621 32.6117 138.621 31.375C138.621 30.1383 138.912 29.0358 139.496 28.0675C140.091 27.0875 140.907 26.3292 141.946 25.7925C142.984 25.2442 144.151 24.97 145.446 24.97C146.636 24.97 147.697 25.18 148.631 25.6C149.564 26.02 150.334 26.6267 150.941 27.42L148.333 29.7475C147.575 28.7908 146.682 28.3125 145.656 28.3125C144.792 28.3125 144.098 28.5925 143.573 29.1525C143.048 29.7008 142.786 30.4417 142.786 31.375C142.786 32.3083 143.048 33.055 143.573 33.615C144.098 34.1633 144.792 34.4375 145.656 34.4375C146.682 34.4375 147.575 33.9592 148.333 33.0025L150.941 35.33C150.334 36.1233 149.564 36.73 148.631 37.15C147.697 37.57 146.636 37.78 145.446 37.78Z" fill="#1C1C1C"/>
<path d="M160.663 35.365H156.008L155.185 37.5H150.985L156.34 25.25H160.4L165.755 37.5H161.485L160.663 35.365ZM159.525 32.39L158.335 29.31L157.145 32.39H159.525Z" fill="#1C1C1C"/>
<rect width="31.9194" height="2.49076" rx="1.24538" transform="matrix(0.989768 -0.142685 0.142844 0.989745 29.4073 47.001)" fill="#7DC23C"/>
<rect width="15.7386" height="2.49076" rx="1.24538" transform="matrix(0.989768 -0.142685 0.142844 0.989745 17.196 42.5179)" fill="#7DC23C"/>
<rect width="13.7368" height="2.49076" rx="1.24538" transform="matrix(0.989768 -0.142685 0.142844 0.989745 18.9401 14.3057)" fill="#7DC23C"/>
<rect width="13.7368" height="2.49076" rx="1.24538" transform="matrix(0.989768 -0.142685 0.142844 0.989745 14.7034 20.4958)" fill="#7DC23C"/>
<rect width="23.9875" height="2.49076" rx="1.24538" transform="matrix(0.989768 -0.142685 0.142844 0.989745 6.05316 39.1445)" fill="#7DC23C"/>
<rect width="29.0065" height="2.49076" rx="1.24538" transform="matrix(0.989768 -0.142685 0.142844 0.989745 0 27.936)" fill="#7DC23C"/>
<rect width="2.49211" height="2.49076" rx="1.24538" transform="matrix(0.989768 -0.142685 0.142844 0.989745 25.9182 47.5348)" fill="#7DC23C"/>
<rect width="2.49211" height="2.49076" rx="1.24538" transform="matrix(0.989768 -0.142685 0.142844 0.989745 13.7064 43.0515)" fill="#7DC23C"/>
<rect width="2.49211" height="2.49076" rx="1.24538" transform="matrix(0.989768 -0.142685 0.142844 0.989745 15.4514 14.8391)" fill="#7DC23C"/>
<path d="M78.3779 39.4578L75.1381 39.7068C76.0519 40.7862 77.3312 43.3682 75.1381 45.0619C72.945 46.7556 71.0676 45.7676 70.403 45.0619L67.2878 45.5601C67.2878 45.5601 71.0261 50.666 76.1349 47.8017C79.6654 45.8223 79.1671 41.0767 78.3779 39.4578Z" fill="#7DC23C"/>
<path d="M60.933 17.913L57.3194 18.2866L58.1916 19.781H62.4282C63.3836 20.9434 65.4687 23.5919 66.1665 24.887C67.0387 26.506 65.668 28.6231 64.7958 30.3666C63.9235 32.1102 62.179 35.099 60.5591 36.2199C58.9392 37.3407 50.8398 38.337 48.0984 38.7106C45.3571 39.0842 41.8681 39.7069 40.9958 37.9634C40.1236 36.2199 42.1173 33.6046 42.8649 31.9856C43.463 30.6904 43.3634 29.3703 43.2387 28.8722C42.9895 28.0004 41.9927 27.727 40.2482 28.0004C33.8932 28.9967 20.3609 31.089 17.0713 31.4875C12.974 31.9838 13.0982 32.9747 13.2073 33.8443L13.2084 33.8537C13.3645 35.099 14.7868 35.2236 15.3268 35.099L29.9058 32.9819C32.3149 32.6913 37.1829 33.0815 37.3822 36.9671C37.5816 40.8526 34.8901 43.9826 33.5194 45.0619L63.0513 40.5786C63.0513 40.5786 63.0513 42.6958 65.2942 44.1902L67.7864 43.8166C67.7864 43.8166 68.1602 40.8277 69.7801 39.9559L79.3748 38.337C79.3748 38.337 78.5026 30.7403 69.7801 33.1064C69.7801 33.1064 72.1476 29.1213 69.5309 25.2606L65.9173 19.781C66.5403 19.7395 68.3097 19.6067 70.4031 19.4074C72.4965 19.2082 72.1892 17.996 71.7738 17.4149C71.2754 16.5016 70.1539 14.4011 69.6555 13.3052C69.157 12.2092 67.7864 12.4334 67.1633 12.6825L62.6775 14.426L60.933 17.913Z" fill="#7DC23C"/>
<path d="M47.8492 14.7998C48.9458 13.8035 48.4722 12.6826 48.0983 12.309C46.6029 10.9391 44.6095 13.928 44.2356 14.4261C43.966 14.7854 41.9927 17.415 42.8649 18.4113C43.7372 19.4076 45.7309 19.1585 45.9801 19.1585C46.1795 19.1585 52.0443 18.9925 54.9518 18.9095C56.6963 18.9095 56.7379 18.0377 56.5717 17.415C56.4388 16.9169 56.7462 16.2942 57.9424 16.2942C59.4377 16.2942 59.0639 18.0377 59.8115 17.0414C60.5592 16.0451 59.0639 14.1771 57.3194 14.3016C55.9238 14.4012 54.4949 15.6715 53.955 16.2942L51.4627 16.5433C49.768 16.6429 47.4442 17.1659 46.9769 16.5433C46.8523 16.3772 46.7527 15.796 47.8492 14.7998Z" fill="#7DC23C"/>
<path d="M51.089 10.6901C49.9675 9.94285 49.0952 8.69749 48.9706 7.57666C43.6124 7.95027 39.376 10.8146 35.887 13.6789C33.0958 15.9704 31.0689 20.0303 30.4043 21.7738H36.51C36.51 21.7738 32.6472 25.5099 37.133 26.7553C39.9868 27.5476 48.9707 25.2608 49.2199 26.7553C49.4691 28.2497 49.3445 29.246 48.4723 31.4877C47.7745 33.281 45.7724 35.4728 44.8587 36.3446L56.3225 35.4728C56.3225 35.4728 54.7026 33.4802 51.089 32.6085C52.0443 30.5329 53.9051 26.1824 53.7058 25.3854C53.4565 24.3891 52.3351 23.7664 49.4691 22.6456C47.1763 21.7489 44.7756 21.3587 43.8618 21.2757L44.7339 20.1548C43.2386 20.1548 42.7401 19.9056 42.2418 19.1586C41.3282 17.7887 41.6422 16.2942 42.2418 15.4225C43.1556 14.0941 45.357 11.3626 46.8523 11.0637C48.3476 10.7648 49.0537 11.6864 49.2199 12.1845L51.089 10.6901Z" fill="#7DC23C"/>
<path d="M58.9389 8.4483L49.2195 6.33118C49.0534 7.90864 50.4792 10.6044 53.0823 11.0636C57.319 11.8108 58.6066 9.4861 58.9389 8.4483Z" fill="#7DC23C"/>
<path d="M61.9298 8.69738L47.7245 5.58397C48.846 0.104365 53.0827 -0.269261 55.4502 0.104365C57.4801 0.424713 59.6868 1.84788 60.1853 4.58768C60.584 6.77952 61.5144 8.24075 61.9298 8.69738Z" fill="#7DC23C"/>
</svg>
