<svg width="838" height="514" viewBox="0 0 838 514" fill="none" xmlns="http://www.w3.org/2000/svg">
<path d="M213.098 5.28772C226.486 5.28772 237.886 13.7879 242.205 25.6873C245.262 23.9815 248.785 23.0061 252.531 23.0061C264.263 23.0061 273.776 32.5232 273.776 44.2608C273.776 44.958 273.739 45.6429 273.676 46.3236H135.415C137.158 38.7406 143.936 33.0835 152.043 33.0835C153.532 33.0835 154.976 33.2744 156.349 33.6314C160.348 25.0731 169.031 19.1379 179.104 19.1379C181.71 19.1379 184.22 19.5363 186.58 20.271C191.998 11.2935 201.847 5.28772 213.098 5.28772Z" fill="#E4EDF9"/>
<path d="M732.888 35.7646C746.276 35.7646 757.676 44.2648 761.995 56.1643C765.053 54.4584 768.575 53.4831 772.321 53.4831C784.053 53.4831 793.566 63.0001 793.566 74.7377C793.566 75.435 793.529 76.1198 793.467 76.8005H655.205C656.948 69.2176 663.726 63.5604 671.833 63.5604C673.322 63.5604 674.766 63.7514 676.139 64.1083C680.138 55.55 688.822 49.6148 698.894 49.6148C701.5 49.6148 704.01 50.0133 706.37 50.7479C711.788 41.7704 721.637 35.7646 732.888 35.7646Z" fill="#E4EDF9"/>
<path d="M551.946 21.7029C551.025 17.6935 547.44 14.701 543.151 14.701C542.362 14.701 541.599 14.8006 540.873 14.9915C538.757 10.4634 534.165 7.3256 528.838 7.3256C527.461 7.3256 526.133 7.53313 524.884 7.92327C522.018 3.17512 516.811 0 510.858 0C503.78 0 497.748 4.49497 495.462 10.7871C493.844 9.88645 491.981 9.36764 489.998 9.36764C483.792 9.36764 478.764 14.4022 478.764 20.6072C478.764 20.9765 478.785 21.3376 478.818 21.6987H551.946V21.7029Z" fill="#E4EDF9"/>
<path d="M445.94 89.9451C444.824 85.0848 440.48 81.4615 435.282 81.4615C434.328 81.4615 433.403 81.586 432.523 81.8143C429.959 76.3273 424.396 72.5296 417.945 72.5296C416.277 72.5296 414.668 72.7828 413.153 73.256C409.681 67.5034 403.371 63.6517 396.161 63.6517C387.585 63.6517 380.28 69.0972 377.508 76.7216C375.55 75.63 373.293 75.0033 370.891 75.0033C363.374 75.0033 357.28 81.1004 357.28 88.6211C357.28 89.0652 357.304 89.5093 357.346 89.9409H445.94V89.9451Z" fill="#E4EDF9"/>
<path d="M713.485 167.825C712.369 162.965 708.025 159.341 702.827 159.341C701.873 159.341 700.948 159.466 700.068 159.694C697.505 154.207 691.941 150.41 685.49 150.41C683.822 150.41 682.213 150.663 680.698 151.136C677.226 145.383 670.916 141.536 663.706 141.536C655.13 141.536 647.825 146.981 645.053 154.606C643.095 153.514 640.838 152.887 638.436 152.887C630.919 152.887 624.825 158.984 624.825 166.505C624.825 166.949 624.85 167.393 624.891 167.825H713.485Z" fill="#E4EDF9"/>
<path d="M178.665 176.931C177.549 172.075 173.205 168.448 168.007 168.448C167.053 168.448 166.127 168.572 165.248 168.8C162.684 163.313 157.121 159.516 150.665 159.516C148.998 159.516 147.388 159.769 145.874 160.242C142.401 154.489 136.091 150.642 128.881 150.642C120.302 150.642 113 156.087 110.229 163.712C108.271 162.62 106.014 161.994 103.612 161.994C96.0944 161.994 90 168.091 90 175.611C90 176.055 90.0249 176.499 90.0664 176.931H178.665Z" fill="#E4EDF9"/>
<path opacity="0.9" d="M67 507.041V452.977H90.6928V463.789H99.0067V442.165H129.35V463.789H136V447.154H142.65V347.347H150.964V284.135H191.285L190.866 360.33L217.77 360.654V299.642H259.459V364.489L271.93 364.904V299.521H286.479V271.659H295.208V252.944H329.293V271.659H338.022V299.521H352.571V334.941L359.283 335.361L361.3 230.424H406.196V286.248L421.994 286.663V199.412H427.4V181H474.785V199.412H480.191V336.747H490.164V280.329H498.478V262.403H510.534V210.074H527.992V262.403H540.047V280.329H548.361V342.354H554.182L558.754 342.292V270.43L681.798 271.605V433.428H692.19V412.219H729.602V452.973H740.41V438.002H764.102V463.785V468.359H787.795V507.033H67V507.041Z" fill="#3A68B8" fill-opacity="0.3"/>
<g opacity="0.2">
<path opacity="0.2" d="M656.818 284.837H671.38V303.705H656.818V284.837Z" fill="#085FCC"/>
<path opacity="0.2" d="M656.818 345.526H671.38V364.394H656.818V345.526Z" fill="#085FCC"/>
<path opacity="0.2" d="M634.448 284.837H649.01V303.705H634.448V284.837Z" fill="#085FCC"/>
<path opacity="0.2" d="M612.075 284.837H626.637V303.705H612.075V284.837Z" fill="#085FCC"/>
<path opacity="0.2" d="M612.075 386.591H626.637V405.459H612.075V386.591Z" fill="#085FCC"/>
<path opacity="0.2" d="M634.448 314.941H649.01V333.809H634.448V314.941Z" fill="#085FCC"/>
<path opacity="0.2" d="M634.448 418.815H649.01V437.683H634.448V418.815Z" fill="#085FCC"/>
<path opacity="0.2" d="M634.448 345.526H649.01V364.394H634.448V345.526Z" fill="#085FCC"/>
<path opacity="0.2" d="M592.846 345.526H607.408V364.394H592.846V345.526Z" fill="#085FCC"/>
<path opacity="0.2" d="M592.846 418.815H607.408V437.683H592.846V418.815Z" fill="#085FCC"/>
<path opacity="0.2" d="M574.542 284.837H589.104V303.705H574.542V284.837Z" fill="#085FCC"/>
<path opacity="0.2" d="M462.961 210H471.046V220.48H462.961V210Z" fill="#085FCC"/>
<path opacity="0.2" d="M446.134 210H454.224V220.48H446.134V210Z" fill="#085FCC"/>
<path opacity="0.2" d="M462.961 228.499H471.046V238.979H462.961V228.499Z" fill="#085FCC"/>
<path opacity="0.2" d="M429.311 228.499H437.397V238.979H429.311V228.499Z" fill="#085FCC"/>
<path opacity="0.2" d="M446.134 246.993H454.224V257.473H446.134V246.993Z" fill="#085FCC"/>
<path opacity="0.2" d="M429.311 246.993H437.397V257.473H429.311V246.993Z" fill="#085FCC"/>
<path opacity="0.2" d="M462.961 265.492H471.046V275.972H462.961V265.492Z" fill="#085FCC"/>
<path opacity="0.2" d="M429.311 265.492H437.397V275.972H429.311V265.492Z" fill="#085FCC"/>
<path opacity="0.2" d="M462.961 283.991H471.046V294.471H462.961V283.991Z" fill="#085FCC"/>
<path opacity="0.2" d="M446.134 283.991H454.224V294.471H446.134V283.991Z" fill="#085FCC"/>
<path opacity="0.2" d="M429.311 302.489H437.397V312.969H429.311V302.489Z" fill="#085FCC"/>
<path opacity="0.2" d="M462.961 339.483H471.046V349.963H462.961V339.483Z" fill="#085FCC"/>
<path opacity="0.2" d="M331.918 308.562H340.004V319.041H331.918V308.562Z" fill="#085FCC"/>
<path opacity="0.2" d="M286.988 308.562H295.074V319.041H286.988V308.562Z" fill="#085FCC"/>
<path opacity="0.2" d="M310.05 280.093H318.136V290.573H310.05V280.093Z" fill="#085FCC"/>
<path opacity="0.2" d="M180.053 295.907H188.139V306.387H180.053V295.907Z" fill="#085FCC"/>
<path opacity="0.2" d="M153 295.907H161.09V306.387H153V295.907Z" fill="#085FCC"/>
<path opacity="0.2" d="M153 314.588H161.09V325.068H153V314.588Z" fill="#085FCC"/>
<path opacity="0.2" d="M180.053 333.274H188.139V343.754H180.053V333.274Z" fill="#085FCC"/>
<path opacity="0.2" d="M153 333.274H161.09V343.754H153V333.274Z" fill="#085FCC"/>
<path opacity="0.2" d="M180.053 351.955H188.139V362.435H180.053V351.955Z" fill="#085FCC"/>
<path opacity="0.2" d="M166.529 370.636H174.614V381.116H166.529V370.636Z" fill="#085FCC"/>
<path opacity="0.2" d="M153 370.636H161.09V381.116H153V370.636Z" fill="#085FCC"/>
<path opacity="0.2" d="M153 389.322H161.09V399.802H153V389.322Z" fill="#085FCC"/>
<path opacity="0.2" d="M180.053 408.003H188.139V418.483H180.053V408.003Z" fill="#085FCC"/>
<path opacity="0.2" d="M166.529 408.003H174.614V418.483H166.529V408.003Z" fill="#085FCC"/>
<path opacity="0.2" d="M292.672 280.093H300.762V290.573H292.672V280.093Z" fill="#085FCC"/>
<path opacity="0.2" d="M331.918 329.65H340.004V340.13H331.918V329.65Z" fill="#085FCC"/>
<path opacity="0.2" d="M316.941 329.65H325.027V340.13H316.941V329.65Z" fill="#085FCC"/>
<path opacity="0.2" d="M331.918 350.735H340.004V361.215H331.918V350.735Z" fill="#085FCC"/>
<path opacity="0.2" d="M301.965 350.735H310.05V361.215H301.965V350.735Z" fill="#085FCC"/>
<path opacity="0.2" d="M286.988 350.735H295.074V361.215H286.988V350.735Z" fill="#085FCC"/>
<path opacity="0.2" d="M316.941 371.823H325.027V382.303H316.941V371.823Z" fill="#085FCC"/>
<path opacity="0.2" d="M331.918 392.912H340.004V403.392H331.918V392.912Z" fill="#085FCC"/>
<path opacity="0.2" d="M301.965 392.912H310.05V403.392H301.965V392.912Z" fill="#085FCC"/>
<path opacity="0.2" d="M286.988 392.912H295.074V403.392H286.988V392.912Z" fill="#085FCC"/>
<path opacity="0.2" d="M331.918 435.085H340.004V445.565H331.918V435.085Z" fill="#085FCC"/>
<path opacity="0.2" d="M301.965 435.085H310.05V445.565H301.965V435.085Z" fill="#085FCC"/>
<path opacity="0.2" d="M574.542 386.591H589.104V405.459H574.542V386.591Z" fill="#085FCC"/>
<path opacity="0.2" d="M497.627 289.764H542.278V294.62H497.627V289.764Z" fill="#085FCC"/>
<path opacity="0.2" d="M365.8 276.009H402.084V280.865H365.8V276.009Z" fill="#085FCC"/>
<path opacity="0.2" d="M365.8 286.489H402.084V291.345H365.8V286.489Z" fill="#085FCC"/>
<path opacity="0.2" d="M365.8 317.933H402.084V322.789H365.8V317.933Z" fill="#085FCC"/>
<path opacity="0.2" d="M220.403 308.562H256.687V313.418H220.403V308.562Z" fill="#085FCC"/>
<path opacity="0.2" d="M220.403 319.042H256.687V323.898H220.403V319.042Z" fill="#085FCC"/>
<path opacity="0.2" d="M220.403 340.001H256.687V344.858H220.403V340.001Z" fill="#085FCC"/>
<path opacity="0.2" d="M220.403 371.446H256.687V376.302H220.403V371.446Z" fill="#085FCC"/>
<path opacity="0.2" d="M220.403 392.406H256.687V397.262H220.403V392.406Z" fill="#085FCC"/>
<path opacity="0.2" d="M220.403 413.365H256.687V418.221H220.403V413.365Z" fill="#085FCC"/>
<path opacity="0.2" d="M220.403 434.33H256.687V439.186H220.403V434.33Z" fill="#085FCC"/>
<path opacity="0.2" d="M365.8 349.373H402.084V354.229H365.8V349.373Z" fill="#085FCC"/>
<path opacity="0.2" d="M365.8 370.333H402.084V375.189H365.8V370.333Z" fill="#085FCC"/>
<path opacity="0.2" d="M497.627 303.705H542.278V308.562H497.627V303.705Z" fill="#085FCC"/>
<path opacity="0.2" d="M497.627 317.647H542.278V322.503H497.627V317.647Z" fill="#085FCC"/>
<path opacity="0.2" d="M497.627 345.534H542.278V350.39H497.627V345.534Z" fill="#085FCC"/>
<path opacity="0.2" d="M497.627 373.417H542.278V378.273H497.627V373.417Z" fill="#085FCC"/>
<path opacity="0.2" d="M497.627 387.363H542.278V392.219H497.627V387.363Z" fill="#085FCC"/>
<path opacity="0.2" d="M497.627 415.245H542.278V420.102H497.627V415.245Z" fill="#085FCC"/>
<path opacity="0.2" d="M497.627 443.133H542.278V447.989H497.627V443.133Z" fill="#085FCC"/>
<path opacity="0.3" d="M367 237H403.284V241.856H367V237Z" fill="#085FCC" fill-opacity="0.19"/>
<path opacity="0.3" d="M367 247.484H403.284V252.34H367V247.484Z" fill="#085FCC" fill-opacity="0.19"/>
</g>
<path d="M821.328 415.169C816.939 414.298 813.537 410.757 812.719 406.291C810.409 393.657 803.103 371.419 780.277 371.012C753.39 370.531 748.594 390.702 749.229 405.391C749.386 409.085 746.379 412.102 742.74 411.953C734.787 411.621 723.188 413.468 723.188 427.04C723.188 427.04 715.994 452.598 736.447 458.762C756.9 464.925 766.79 456.824 775.556 465.037C783.65 472.624 810.056 480.506 822.809 463.236C824.804 460.534 827.285 458.239 830.086 456.425C834.873 453.325 841.175 445.792 835.906 428.526C833.861 421.818 828.43 416.697 821.668 415.244C821.556 415.219 821.444 415.194 821.328 415.169Z" fill="#7DC23C"/>
<path d="M771.461 437.395C773.316 438.819 775.066 440.45 776.659 442.293C777.062 442.758 777.452 443.239 777.834 443.733C777.692 441.463 777.423 439.661 777.004 438.495C776.518 437.154 775.112 434.88 773.386 431.663C771.503 429.293 769.204 426.874 766.74 424.794C764.085 422.557 761.181 420.656 757.874 419.598C761.33 420.137 764.521 421.619 767.479 423.458C768.412 424.043 769.362 424.682 770.3 425.375C766.358 416.473 762.484 403.444 764.081 386.12C764.081 386.12 764.529 397.766 767.03 408.396C767.441 406.669 768.014 405.017 768.669 403.432C770.333 399.617 771.432 397.945 773.743 394.67C771.818 398.202 770.914 399.983 769.69 403.909C767.255 412.276 768.835 415.099 770.15 417.946C774.062 426.417 778.792 432.51 780.808 437.474C781.563 435.864 782.331 434.262 783.111 432.672C784.782 429.277 786.496 425.915 788.284 422.603C788.574 422.067 788.865 421.528 789.159 420.992C789.371 420.279 789.686 419.274 790.055 416.962C790.246 415.784 790.408 414.597 790.52 413.397C790.806 410.305 790.806 408.616 790.761 406.154C791.034 408.67 791.18 410.342 791.18 413.439C791.176 414.663 791.126 415.887 791.039 417.112C791.026 417.315 791.005 417.514 790.989 417.718C790.997 417.701 791.01 417.685 791.018 417.668C791.951 416.041 792.897 414.422 793.885 412.837C794.868 411.251 795.88 409.687 796.938 408.163C797.996 406.644 799.108 405.167 800.311 403.797C799.191 405.254 798.178 406.806 797.216 408.396C796.253 409.99 795.345 411.616 794.461 413.268C793.578 414.916 792.731 416.593 791.906 418.278C791.076 419.963 790.275 421.665 789.487 423.379C789.387 423.599 789.284 423.819 789.184 424.039C789.711 423.877 790.213 423.728 791.101 423.503C795.146 422.487 798.49 422.196 801.539 421.98C798.755 422.482 795.415 423.109 791.358 424.599C790.408 424.952 789.288 425.4 788.354 425.861C787.185 428.472 786.052 431.103 784.948 433.751C784.222 435.498 783.513 437.25 782.82 439.01C782.476 439.89 782.131 440.769 781.804 441.654L781.795 441.678C781.8 441.903 781.791 442.123 781.775 442.343C781.65 443.907 781.356 447.68 781.036 452.486C783.575 451.166 786.388 450.17 789.475 449.573C792.864 448.913 795.382 449.017 800.618 448.83C801.049 448.543 801.721 447.979 802.381 447.232C804.011 445.385 805.169 442.969 805.604 440.06C805.43 443.007 804.488 445.638 802.933 447.805C802.692 448.137 802.439 448.456 802.174 448.763C803.655 448.689 805.136 448.581 806.608 448.398C808.214 448.195 809.811 447.908 811.371 447.423C812.927 446.937 814.458 446.261 815.789 445.181C814.524 446.364 813.018 447.182 811.471 447.8C810.043 448.369 808.571 448.772 807.085 449.095C807.384 449.145 807.683 449.195 807.986 449.245C809.081 449.44 810.168 449.66 811.251 449.93C812.329 450.204 813.404 450.502 814.462 450.872C815.516 451.249 816.557 451.677 817.552 452.217C816.524 451.764 815.466 451.428 814.4 451.146C813.329 450.872 812.251 450.664 811.168 450.49C810.085 450.32 808.994 450.191 807.903 450.091C806.816 449.996 803.688 449.884 802.609 449.859C797.021 450.614 793.64 450.639 789.852 451.694C786.566 452.611 783.604 454.01 781.14 455.703C781.032 455.778 780.924 455.852 780.821 455.927C780.016 468.976 779.29 486.844 780.995 491.36C783.542 498.096 768.088 495.672 768.088 495.672C768.088 495.672 773.287 492.775 775.344 477.622C776.539 468.81 777.875 457.421 777.954 448.817C777.883 448.655 777.813 448.498 777.738 448.336C777.497 447.817 777.232 447.302 776.958 446.796C776.402 445.783 775.792 444.795 775.133 443.853C773.809 441.961 772.299 440.222 770.652 438.644C768.051 436.079 764.039 433.294 759.389 431.331C764.151 432.73 768.491 435.042 771.461 437.395Z" fill="black"/>
<path d="M664.688 440.487C654.275 440.682 644.007 437.827 635.282 432.132C628.271 427.559 621.696 420.818 620.484 411.309C617.709 389.578 630.221 390.296 633.291 381.434C636.361 372.573 627.255 368.605 631.188 352.46C633.299 343.789 639.979 340.033 650.392 326.096C660.809 312.159 673.425 305.02 682.635 310.216C691.841 315.413 691.472 326.59 698.321 330.313C705.166 334.036 715.691 347.027 711.675 371.726C707.664 396.426 734.812 387.216 724.188 415.796C716.392 436.752 682.316 440.164 664.688 440.487Z" fill="#7DC23C"/>
<path d="M677.084 421.81C676.117 435.536 674.699 490.198 676.756 494.946C679.826 502.031 663.726 493.203 663.726 493.203C663.726 493.203 668.003 460.567 670.484 444.63C671.587 437.536 673.608 416.19 673.628 414.331C673.545 414.161 673.458 413.995 673.367 413.825C673.077 413.277 672.757 412.737 672.425 412.202C671.757 411.135 671.019 410.098 670.222 409.106C668.629 407.113 666.808 405.283 664.821 403.627C661.087 400.414 655.947 397.667 651.242 395.936C657.133 397.426 662.344 399.9 665.812 402.295C668.048 403.793 670.16 405.507 672.077 407.445C672.562 407.935 673.035 408.441 673.491 408.96C673.321 406.574 672.998 404.677 672.492 403.453C671.907 402.041 670.214 399.651 668.131 396.264C665.933 393.848 663.128 391.258 660.12 389.038C656.847 386.635 653.358 384.667 649.433 383.572C653.549 384.136 657.374 385.659 661.008 387.635C662.153 388.262 663.277 388.926 664.406 389.652C659.656 380.289 654.984 366.584 656.909 348.359C656.909 348.359 657.449 360.611 660.465 371.793C660.963 369.975 661.647 368.24 662.439 366.571C664.452 362.554 665.775 360.794 668.555 357.353C666.24 361.055 665.148 362.936 663.667 367.074C660.826 375.59 662.518 378.616 664.223 381.841C668.936 390.752 674.641 397.16 677.072 402.382C677.98 400.688 678.909 399.003 679.851 397.326C681.867 393.757 683.933 390.221 686.091 386.734C686.439 386.17 686.792 385.605 687.145 385.041C687.472 384.074 687.51 384.016 687.837 382.65C687.978 382.04 688.111 381.426 688.223 380.803C688.455 379.567 688.646 378.313 688.783 377.055C688.916 375.798 689.024 374.532 689.065 373.258C689.136 371.921 689.094 370.435 689.078 369.435C689.198 370.398 689.397 371.901 689.464 373.25C689.559 374.528 689.58 375.81 689.58 377.097C689.576 378.384 689.513 379.67 689.41 380.957C689.393 381.169 689.372 381.38 689.352 381.596C689.364 381.58 689.376 381.559 689.389 381.542C690.513 379.828 691.654 378.13 692.845 376.462C694.031 374.793 695.251 373.146 696.525 371.544C697.802 369.946 699.138 368.389 700.59 366.953C699.242 368.489 698.018 370.12 696.856 371.793C695.699 373.469 694.6 375.184 693.538 376.919C692.471 378.653 691.455 380.417 690.455 382.19C689.455 383.962 688.489 385.755 687.539 387.552C687.418 387.784 687.298 388.013 687.174 388.245C689.331 387.668 691.455 387.253 693.662 386.913C697.267 386.398 698.603 386.299 702.071 386.083C698.645 386.622 697.338 386.842 693.82 387.693C690.231 388.606 687.651 389.524 686.178 390.167C684.767 392.915 683.402 395.683 682.071 398.468C681.195 400.302 680.341 402.149 679.503 403.996C679.167 404.743 678.677 405.441 678.507 406.238C677.893 409.155 677.084 421.81 677.084 421.81Z" fill="black"/>
<path d="M749.167 485.068C749.167 485.068 748.266 470.084 735.231 471.471C735.231 471.471 717.483 443.169 698.898 483.125C698.898 483.125 682.121 474.052 675.947 493.784C675.947 493.784 665.617 474.525 650.919 480.905C636.22 487.288 631.204 504.812 631.204 504.812L739.695 507.123L749.167 485.068Z" fill="#669CDF"/>
<path d="M429.585 201.7C430.124 202.061 439.678 219.22 439.678 219.22L452.539 207.913L440.048 187.092L429.585 192.961V201.7Z" fill="#E8AA82"/>
<path d="M447.274 199.137C445.69 203.616 442.437 209.547 435.936 212.538C433.194 207.677 429.896 201.903 429.585 201.696V192.957L440.048 187.088L447.274 199.137Z" fill="#F19A5E"/>
<path d="M563.984 375.069C563.984 375.069 567.622 372.506 571.094 380.714C574.567 388.923 569.9 392.187 569.9 392.187C569.9 392.187 563.926 387.766 563.984 386.924C564.042 386.082 564.258 375.48 564.258 375.48L563.984 375.069Z" fill="white"/>
<path d="M558.006 372.112C558.006 372.112 560.947 370.3 564.253 375.484C565.473 377.396 566.743 380.254 567.933 384.505C572.356 400.292 567.933 400.292 567.933 400.292L560.511 397.135C560.511 397.135 553.405 379.035 553.828 377.558C554.251 376.086 558.006 372.112 558.006 372.112Z" fill="#A2D474"/>
<path d="M312.444 397.027H310.772C307.283 397.027 304.454 399.856 304.454 403.344V411.449H312.245C312.245 411.449 315.717 405.451 316.983 406.712C318.244 407.973 312.444 397.027 312.444 397.027Z" fill="#E7DEF1"/>
<path d="M473.664 475.579C464.184 452.151 475.496 425.475 498.93 415.998C522.364 406.52 549.045 417.83 558.525 441.258C568.004 464.686 556.692 491.362 533.259 500.84C509.825 510.317 483.143 499.008 473.664 475.579Z" fill="black"/>
<path d="M516.084 479.011C504.689 479.011 495.452 469.776 495.452 458.384C495.452 446.993 504.689 437.758 516.084 437.758C527.478 437.758 536.715 446.993 536.715 458.384C536.715 469.776 527.478 479.011 516.084 479.011Z" fill="#949494"/>
<path d="M253.309 458.384C253.309 483.656 273.804 504.146 299.081 504.146C324.363 504.146 344.853 483.656 344.853 458.384C344.853 433.112 324.359 412.623 299.081 412.623C273.804 412.623 253.309 433.112 253.309 458.384Z" fill="black"/>
<path d="M299.081 479.011C287.687 479.011 278.45 469.776 278.45 458.384C278.45 446.993 287.687 437.758 299.081 437.758C310.476 437.758 319.712 446.993 319.712 458.384C319.712 469.776 310.476 479.011 299.081 479.011Z" fill="#949494"/>
<path d="M461.43 451.644H569.568C574.828 451.644 579.089 447.38 579.089 442.125V432.333C579.089 427.073 574.824 422.814 569.568 422.814H461.43V451.644Z" fill="#5CB30B"/>
<path d="M440.724 368.856H530.782C534.209 368.856 536.989 366.077 536.989 362.651V357.873C536.989 354.447 534.209 351.668 530.782 351.668H440.724C437.297 351.668 434.517 354.447 434.517 357.873V362.651C434.517 366.077 437.297 368.856 440.724 368.856Z" fill="#A2D474"/>
<path d="M438.106 367.243C438.106 367.243 446.3 371.768 452.933 390.71C459.567 409.653 458.144 438.227 416.931 440.437H353.611L347.297 429.334C347.297 429.334 352.665 353.767 364.982 320.303H344.14C344.14 320.303 337.85 384.626 315.742 393.307C313.614 394.141 312.241 396.223 312.241 398.504V411.233L345.716 454.49H455.933C455.933 454.49 481.828 456.771 488.143 412.814L562.868 411.669C566.962 411.607 569.866 407.637 568.663 403.722C566.332 396.132 561.586 385.43 552.969 383.079C539.303 379.346 438.106 367.243 438.106 367.243Z" fill="#1C1C1C"/>
<path d="M558.827 385.534C558.723 385.704 558.62 385.878 558.508 386.048H451.149L450.05 383.522C444.142 370.581 438.098 367.243 438.098 367.243H548.219C557.607 367.243 563.623 377.467 558.827 385.534Z" fill="#5CB30B"/>
<path d="M565.332 422.814H485.118C476.497 422.814 470.445 414.315 473.278 406.177C477.551 393.887 487.483 380.665 511.935 378.4C543.519 375.476 562.615 400.706 570.174 414.713C572.148 418.371 569.493 422.814 565.332 422.814Z" fill="#A2D474"/>
<path d="M345.716 454.49L321.082 414.709C321.082 414.709 308.449 404.92 283.499 409.972C268.004 413.108 258.844 423.448 254.127 430.831C251.941 434.253 254.38 438.741 258.441 438.741H296.372C308.001 438.741 319.007 444.004 326.305 453.054L327.28 454.261C332.544 460.794 340.489 464.593 348.881 464.593C354.557 464.593 360.016 462.428 364.148 458.542L368.455 454.494H345.716V454.49Z" fill="#A2D474"/>
<path d="M342.435 280.697C342.435 277.35 345.492 274.836 348.774 275.483C362.742 278.229 377.403 289.419 377.403 302.808C377.403 316.197 362.742 327.388 348.774 330.133C345.488 330.78 342.435 328.267 342.435 324.92V280.697Z" fill="#A2D474"/>
<path d="M342.435 280.817V324.808C333.108 321.846 326.346 313.119 326.346 302.812C326.346 292.505 333.104 283.779 342.435 280.817Z" fill="white"/>
<path d="M491.25 398.342H543.087C543.684 398.342 544.17 397.857 544.17 397.259V396.426C544.17 395.829 543.684 395.343 543.087 395.343H491.25C490.653 395.343 490.167 395.829 490.167 396.426V397.259C490.167 397.857 490.653 398.342 491.25 398.342Z" fill="#1C1C1C"/>
<path d="M491.25 405.932H543.087C543.684 405.932 544.17 405.447 544.17 404.85V404.016C544.17 403.419 543.684 402.934 543.087 402.934H491.25C490.653 402.934 490.167 403.419 490.167 404.016V404.85C490.167 405.447 490.653 405.932 491.25 405.932Z" fill="#1C1C1C"/>
<path d="M397.342 400.702L401.299 443.195L404.701 449.317L410.812 444.896L410.688 399.615L397.342 400.702Z" fill="#E8AA82"/>
<path d="M374.396 396.72L376.345 443.195L379.743 449.317L385.854 444.896L385.73 399.616L374.396 396.72Z" fill="#E8AA82"/>
<path d="M360.775 452.208L387.157 452.295C387.364 452.295 387.53 452.129 387.53 451.922L387.538 449.939C387.538 449.732 387.372 449.566 387.165 449.566L360.78 449.479C360.572 449.479 360.406 449.645 360.406 449.852L360.398 451.835C360.402 452.038 360.568 452.204 360.775 452.208Z" fill="#D5E4F6"/>
<path d="M386.327 441.267L387.202 448.861C387.31 449.798 386.783 450.645 386.094 450.645L362.186 450.566C361.564 450.562 360.954 450.176 360.63 449.446C360.299 448.699 360.236 447.571 361.311 446.061C363.46 443.042 370.496 442.328 373.943 439.757L385.078 439.794C385.7 439.798 386.227 440.42 386.327 441.267Z" fill="#A2D474"/>
<path d="M375.619 444.174C375.794 444.07 375.856 443.776 375.756 443.556C375.292 442.515 373.831 439.977 370.844 440.487C370.67 440.516 370.554 440.744 370.583 440.98V440.989C370.612 441.217 370.766 441.366 370.931 441.341C373.607 440.893 374.848 443.129 375.225 444.004C375.308 444.187 375.474 444.261 375.619 444.174Z" fill="#D5E4F6"/>
<path d="M373.13 445.141C373.304 445.037 373.367 444.743 373.267 444.523C372.802 443.482 371.342 440.943 368.355 441.453C368.181 441.482 368.065 441.711 368.094 441.947V441.955C368.123 442.183 368.276 442.333 368.442 442.308C371.118 441.86 372.358 444.095 372.736 444.971C372.823 445.157 372.989 445.232 373.13 445.141Z" fill="#D5E4F6"/>
<path d="M370.819 446.045C370.994 445.941 371.056 445.647 370.956 445.427C370.492 444.386 369.031 441.847 366.044 442.358C365.87 442.387 365.754 442.615 365.783 442.851V442.859C365.812 443.088 365.965 443.237 366.131 443.212C368.807 442.764 370.048 445 370.425 445.875C370.508 446.061 370.674 446.136 370.819 446.045Z" fill="#D5E4F6"/>
<path opacity="0.3" d="M379.714 450.624C381.618 444.498 384.867 443.83 386.638 443.979L387.198 448.865C387.306 449.803 386.779 450.649 386.09 450.649L379.714 450.624Z" fill="#9369BF"/>
<path d="M491.25 413.518H543.087C543.684 413.518 544.17 413.033 544.17 412.436V411.602C544.17 411.005 543.684 410.52 543.087 410.52H491.25C490.653 410.52 490.167 411.005 490.167 411.602V412.436C490.167 413.033 490.653 413.518 491.25 413.518Z" fill="#1C1C1C"/>
<path d="M391.139 338.167C388.011 338.408 375.026 343.696 373.342 353.074C371.657 362.452 373.342 435.302 373.342 435.302H387.771C387.771 435.302 399.312 377.599 399.312 375.915C399.312 374.231 391.139 338.167 391.139 338.167Z" fill="#0F0F0F"/>
<path d="M490.221 317.25C489.981 317.972 493.391 350.187 460.542 352.834C427.693 355.48 408.696 359.806 408.696 359.806C408.696 359.806 413.264 432.656 413.023 436.26C413.023 436.26 401.723 438.185 396.91 437.463C396.91 437.463 371.18 356.679 378.635 340.092C386.091 323.501 445.491 317.25 445.491 317.25H490.221Z" fill="#1C1C1C"/>
<path d="M435.534 259.324C435.534 259.324 435.198 275.006 434.152 276.458C433.111 277.91 383.332 296.918 383.332 296.918L391.504 306.155L428.178 295.682C428.178 295.682 454.443 286.263 454.178 285.583C453.908 284.903 452.464 275.255 451.166 271.476C449.867 267.698 444.968 259.154 444.968 259.154L435.534 259.324Z" fill="#DEA076"/>
<path d="M453.896 204.607C453.896 204.607 487.151 216.69 490.939 282.327L492.561 319.652C492.561 319.652 454.684 335.882 433.041 321.817C433.041 321.817 430.85 255.193 428.568 230.841C428.183 226.735 429.859 222.704 433.036 220.074C440.297 214.064 452.676 204.043 453.896 204.607Z" fill="#61BDF2"/>
<path d="M465.441 251.244C465.441 251.244 473.573 284.844 462.205 294.081C455.115 299.838 389.019 311.133 389.019 311.133L384.755 300.834C384.755 300.834 437.392 282.053 440.533 279.876C443.673 277.698 438.401 248.975 438.401 248.975L465.441 251.244Z" fill="#E8AA82"/>
<path d="M439.732 216.764C442.711 214.122 446.98 213.429 450.647 214.977C455.729 217.121 463.002 223.214 466.931 240.36L470.262 255.155C470.262 255.155 445.553 261.219 437.977 260.875L434.098 238C434.098 238 431.904 223.707 439.732 216.764Z" fill="#669CDF"/>
<path d="M443.138 179.887C441.462 183.529 442.823 187.614 446.179 189.016C449.531 190.414 453.609 188.597 455.285 184.956C456.961 181.314 455.601 177.228 452.245 175.826C448.888 174.429 444.81 176.245 443.138 179.887Z" fill="#E8AA82"/>
<path d="M386.331 452.208L412.716 452.295C412.924 452.295 413.09 452.129 413.09 451.922L413.098 449.939C413.098 449.732 412.932 449.566 412.725 449.566L386.339 449.479C386.132 449.479 385.966 449.645 385.966 449.852L385.958 451.835C385.958 452.038 386.124 452.204 386.331 452.208Z" fill="#D5E4F6"/>
<path d="M411.883 441.267L412.758 448.861C412.866 449.798 412.339 450.645 411.65 450.645L387.742 450.566C387.119 450.562 386.509 450.176 386.186 449.446C385.854 448.699 385.792 447.571 386.866 446.061C389.015 443.042 396.051 442.328 399.499 439.757L410.634 439.794C411.256 439.798 411.783 440.42 411.883 441.267Z" fill="#A2D474"/>
<path d="M401.175 444.174C401.349 444.07 401.411 443.776 401.312 443.556C400.847 442.515 399.387 439.977 396.4 440.487C396.226 440.516 396.109 440.744 396.138 440.98V440.989C396.167 441.217 396.321 441.366 396.487 441.341C399.163 440.893 400.403 443.129 400.781 444.004C400.864 444.187 401.03 444.261 401.175 444.174Z" fill="#D5E4F6"/>
<path d="M398.686 445.141C398.86 445.037 398.922 444.743 398.823 444.523C398.358 443.482 396.898 440.943 393.911 441.453C393.736 441.482 393.62 441.711 393.649 441.947V441.955C393.678 442.183 393.832 442.333 393.998 442.308C396.674 441.86 397.914 444.095 398.292 444.971C398.375 445.157 398.545 445.232 398.686 445.141Z" fill="#D5E4F6"/>
<path d="M396.375 446.045C396.549 445.941 396.611 445.647 396.512 445.427C396.047 444.386 394.587 441.847 391.6 442.358C391.426 442.387 391.309 442.615 391.338 442.851V442.859C391.368 443.088 391.521 443.237 391.687 443.212C394.363 442.764 395.603 445 395.981 445.875C396.064 446.061 396.23 446.136 396.375 446.045Z" fill="#D5E4F6"/>
<path opacity="0.3" d="M405.265 450.624C407.17 444.498 410.418 443.83 412.19 443.979L412.75 448.865C412.857 449.803 412.331 450.649 411.642 450.649L405.265 450.624Z" fill="#9369BF"/>
<path d="M339.738 465.668H473.174C476.323 465.668 478.879 463.113 478.879 459.964V455.572C478.879 452.424 476.323 449.869 473.174 449.869H339.734C336.585 449.869 334.029 452.424 334.029 455.572V459.964C334.033 463.113 336.585 465.668 339.738 465.668Z" fill="#5CB30B"/>
<path opacity="0.8" d="M540.536 504.565H628.964C628.964 504.565 669.388 492.059 628.964 492.482C628.964 492.482 652.756 474.809 616.754 479.015C580.752 483.221 577.384 493.955 577.384 493.955C577.384 493.955 570.223 481.288 540.536 504.565Z" fill="white"/>
<path opacity="0.8" d="M424.507 504.312L366.999 503.893C366.999 503.893 398.412 485.805 402.834 493.698C402.834 493.698 458.497 482.188 424.507 504.312Z" fill="white"/>
<path opacity="0.8" d="M244 504.357H344.857C344.857 504.357 353.881 493.54 334.034 497.464C334.034 497.464 346.903 480.906 317.161 487.538L299.085 493.594C299.085 493.594 328.586 456.281 295.455 469.226C262.316 482.171 244 504.357 244 504.357Z" fill="white"/>
<path opacity="0.8" d="M481.617 504.312H508.272C508.272 504.312 511.732 496.734 502.045 500.525C502.045 500.525 515.092 475.054 481.617 504.312Z" fill="white"/>
<path d="M417.815 195.881L419.122 200.974C419.122 200.974 430.531 191.733 430.439 191.55C430.348 191.372 428.365 188.079 427.506 188.348C426.652 188.618 419.524 191.368 419.524 191.55C419.528 191.737 417.815 195.881 417.815 195.881Z" fill="white"/>
<path d="M425.797 192.38C422.329 195.76 418.923 196.461 417.388 196.598C416.902 194.844 416.566 193.57 416.566 193.57C416.566 193.57 412.729 192.384 411.497 191.02C411.497 191.02 415.376 185.711 415.434 183.222C415.492 180.733 411.625 165.81 422.366 157.361C433.107 148.908 439.492 164.068 439.492 164.068L444.047 179.763L450.303 189.253C450.303 189.253 448.809 197.838 440.28 203.873C431.75 209.908 422.341 207.602 420.744 206.864C420.354 206.681 419.205 202.973 418.213 199.518C423.768 197.602 425.797 192.38 425.797 192.38Z" fill="#E8AA82"/>
<path d="M423.797 182.749C423.341 183.533 422.308 183.815 421.482 183.379C420.661 182.944 420.362 181.957 420.815 181.173C421.271 180.389 422.304 180.107 423.129 180.542C423.955 180.982 424.254 181.969 423.797 182.749Z" fill="#1C1C1C"/>
<path d="M426.237 179.75C425.639 179.244 425.059 178.805 424.449 178.431C423.843 178.058 423.212 177.772 422.557 177.585C421.906 177.407 421.229 177.274 420.524 177.291L420.259 177.278C420.171 177.278 420.084 177.291 419.993 177.295L419.45 177.324C419.085 177.349 418.724 177.419 418.321 177.428C418.624 177.208 418.948 177 419.292 176.834C419.653 176.71 420.01 176.532 420.408 176.482C421.184 176.304 422.038 176.37 422.831 176.598C423.627 176.83 424.362 177.258 424.947 177.805C425.536 178.361 426.009 179.016 426.237 179.75Z" fill="#1C1C1C"/>
<path d="M437.745 171.413C437.745 171.413 441.516 174.611 442.458 189.294C443.188 200.684 452.726 202.534 452.535 202.471C452.344 202.409 449.855 177.452 449.374 176.61C448.892 175.768 445.686 166.27 445.184 166.03C444.682 165.789 438.189 170.028 437.828 170.132C437.467 170.24 437.745 171.413 437.745 171.413Z" fill="#5CB30B"/>
<path d="M407.531 160.982C407.531 160.982 411.376 135.772 443.723 137.137C476.07 138.501 475.008 176.009 475.008 176.009C475.008 176.009 476.311 203.185 456.949 203.176C456.949 203.176 443.844 204.018 443.844 187.668C443.844 171.857 439.035 171.857 439.035 171.857L407.531 160.982Z" fill="#A2D474"/>
<path opacity="0.5" d="M467.939 150.173C475.411 161.471 475.004 175.98 475.004 175.98C475.004 175.98 476.307 203.156 456.945 203.147C456.945 203.147 444.184 203.969 443.848 188.278C461.612 181.994 467.346 166.378 467.939 150.173Z" fill="#81D435"/>
<path d="M453.763 192.961C453.763 194.985 455.406 196.627 457.43 196.627C459.455 196.627 461.098 194.985 461.098 192.961C461.098 190.937 459.455 189.294 457.43 189.294C455.402 189.294 453.763 190.933 453.763 192.961Z" fill="#5CB30B"/>
<path d="M439.031 171.857C438.048 171.517 413.384 169.613 401.797 168.734C399.818 168.585 399.121 166.034 400.752 164.897L407.526 160.173L439.031 171.857Z" fill="black"/>
<path d="M439.031 171.857C437.932 171.476 413.841 163.504 406.908 161.21C405.909 160.878 405.411 159.767 405.821 158.8L406.751 156.614C407.166 155.64 408.331 155.233 409.261 155.739L439.031 171.857Z" fill="#5CB30B"/>
<path d="M390.795 299.764C390.795 299.764 382.622 294.791 379.071 294.791C375.52 294.791 368.056 296.923 368.056 300.473C368.056 304.024 370.189 306.155 370.189 306.155L377.403 312.377C377.403 312.377 380.847 315.036 382.266 313.613C383.688 312.19 387.949 313.97 394.985 310.079C401.889 306.259 395.413 304.024 394.346 302.958C393.28 301.896 390.795 299.764 390.795 299.764Z" fill="#E8AA82"/>
<path d="M375.719 312.572C371.544 312.572 368.16 309.188 368.16 305.015C368.16 300.841 371.544 297.458 375.719 297.458C379.894 297.458 383.278 300.841 383.278 305.015C383.278 309.188 379.894 312.572 375.719 312.572Z" fill="black"/>
<path d="M23.5258 513.515H814.254C816.063 513.515 817.532 512.046 817.532 510.236V507.713C817.532 505.903 816.063 504.434 814.254 504.434H23.5258C21.717 504.434 20.2483 505.903 20.2483 507.713V510.236C20.2483 512.046 21.717 513.515 23.5258 513.515Z" fill="#61BDF2"/>
<path d="M176.062 455.508C184.658 455.666 193.134 453.312 200.332 448.614C206.119 444.837 211.546 439.275 212.546 431.427C214.836 413.493 204.51 414.086 201.979 406.769C199.444 399.456 206.961 396.181 203.717 382.858C201.975 375.702 196.461 372.602 187.865 361.101C179.269 349.6 168.856 343.706 161.256 347.994C153.656 352.281 153.963 361.508 148.312 364.579C142.662 367.651 133.979 378.371 137.289 398.758C140.6 419.146 118.193 411.542 126.963 435.129C133.39 452.428 161.513 455.238 176.062 455.508Z" fill="#7DC23C"/>
<path d="M165.832 440.093C166.633 451.42 167.803 496.535 166.102 500.454C163.567 506.302 176.855 499.018 176.855 499.018C176.855 499.018 173.324 472.085 171.279 458.928C170.366 453.072 168.699 435.457 168.682 433.925C168.753 433.784 168.823 433.647 168.898 433.506C171.86 427.907 178.054 422.088 187.156 418.743C180.161 420.511 173.602 424.043 168.794 429.493C168.931 427.521 169.201 425.961 169.62 424.948C170.955 421.719 173.295 417.875 179.829 413.053C181.161 412.077 182.555 411.177 184.019 410.405C184.754 410.019 185.509 409.67 186.276 409.35C187.048 409.039 187.84 408.769 188.649 408.545C187.82 408.657 186.99 408.819 186.169 409.027C185.351 409.242 184.538 409.492 183.742 409.782C182.144 410.367 180.597 411.085 179.095 411.899C178.145 412.418 177.212 412.97 176.291 413.563C180.211 405.835 184.065 394.525 182.48 379.484C182.48 379.484 182.036 389.594 179.543 398.825C179.132 397.326 178.564 395.895 177.913 394.517C176.432 391.557 175.602 390.474 174.295 388.677C173.822 388.079 173.341 387.498 172.864 386.909C173.266 387.552 173.673 388.187 174.067 388.83C175.121 390.727 175.809 391.881 176.896 394.932C177.365 396.339 177.738 397.771 177.946 399.211C178.257 401.63 178.087 403.394 178.087 403.394C177.593 404.714 177.041 405.968 176.436 407.117C172.544 414.472 167.836 419.76 165.832 424.068C165.081 422.669 164.318 421.279 163.538 419.897C161.874 416.95 160.169 414.032 158.389 411.156C158.099 410.691 157.808 410.222 157.518 409.761C156.817 407.694 156.39 405.254 156.166 403.17C155.888 400.526 155.879 399.078 155.925 396.882C155.659 399.028 155.506 400.493 155.51 403.208C155.514 404.27 155.564 405.333 155.651 406.395C155.664 406.57 155.684 406.748 155.701 406.922C155.693 406.906 155.68 406.893 155.672 406.877C154.743 405.466 153.801 404.059 152.822 402.685C151.843 401.307 150.835 399.95 149.785 398.626C148.731 397.306 147.628 396.023 146.429 394.836C147.541 396.102 148.553 397.447 149.507 398.829C150.465 400.211 151.37 401.626 152.249 403.058C153.129 404.49 153.967 405.947 154.792 407.408C155.618 408.869 156.419 410.351 157.199 411.837C157.298 412.027 157.398 412.218 157.501 412.409C157.17 412.318 156.663 412.181 155.593 411.944C151.523 411.052 148.184 410.807 145.209 410.625C147.976 411.056 151.308 411.604 155.336 412.899C156.319 413.219 157.377 413.588 158.323 413.995C159.489 416.261 160.613 418.548 161.712 420.843C162.434 422.358 163.144 423.881 163.832 425.409C164.11 426.027 164.513 426.6 164.654 427.26C165.164 429.646 165.832 440.093 165.832 440.093Z" fill="black"/>
<path d="M807.617 504.558C807.617 504.558 799.85 492.812 785.708 495.336C785.708 495.336 777.921 478.788 756.306 478.597C734.397 478.402 730.24 493.667 730.24 493.667C730.24 493.667 724.001 488.401 709.854 493.809C695.711 499.221 690.717 508.974 690.717 508.974L807.617 504.558Z" fill="#61BDF2"/>
<path d="M83.909 485.068C83.909 485.068 84.8092 470.084 97.8442 471.471C97.8442 471.471 115.596 443.169 134.178 483.125C134.178 483.125 150.955 474.052 157.128 493.784C157.128 493.784 167.458 474.525 182.157 480.905C196.855 487.288 201.871 504.812 201.871 504.812L93.3803 507.123L83.909 485.068Z" fill="#669CDF"/>
<path d="M109.651 417.108C117.795 412.941 124.64 405.997 127.088 397.522C129.448 389.349 127.619 380.675 125.636 372.411C124.769 368.796 123.889 364.919 125.296 361.462C126.171 359.308 127.851 357.561 129.378 355.764C142.537 340.253 145.541 318.953 143.873 299.097C143.409 293.585 142.583 287.961 139.845 283.084C137.107 278.208 132.099 274.161 126.295 273.779C117.326 273.19 108.784 281.121 100.242 278.457C94.1228 276.547 91.0321 269.969 85.4895 266.856C80.8265 264.241 75.0681 264.395 69.6625 264.627C67.9615 264.702 66.215 264.781 64.6385 265.399C61.0665 266.802 59.2411 270.546 58.1044 274.057C56.2707 279.731 55.3622 285.649 53.5202 291.323C51.6782 296.997 48.7327 302.596 43.7668 306.198C39.7758 309.091 34.8265 310.465 30.3335 312.582C19.2193 317.82 11.1254 327.54 5.12643 337.854C3.33008 340.942 1.67476 344.138 0.757919 347.554C-2.12538 358.308 3.44206 370.585 13.6518 375.976C17.452 377.981 21.7209 379.085 25.5045 381.115C34.1751 385.767 39.2199 394.587 44.1858 402.788C49.1517 410.99 55.1298 419.532 64.4767 422.794C77.2462 427.256 98.0433 423.051 109.651 417.108Z" fill="#7DC23C"/>
<path d="M19.5554 362.711C21.58 362.417 23.6169 362.267 25.6539 362.176C27.6909 362.093 29.732 362.105 31.7731 362.168C32.3332 362.188 32.8891 362.209 33.445 362.238C30.848 361.001 28.2883 359.607 25.8613 357.913C23.2352 356.075 20.7336 353.863 18.7796 351.028C20.8913 353.684 23.4717 355.635 26.1559 357.216C28.8483 358.797 31.6653 360.014 34.5195 361.068C37.1373 362.026 39.7883 362.84 42.4558 363.587C42.0576 362.877 41.6925 362.151 41.3523 361.404C40.6014 359.744 39.9957 357.996 39.5476 356.199C39.0913 354.402 38.8092 352.551 38.6681 350.7C38.5395 348.845 38.5644 346.985 38.7304 345.151C38.7138 346.993 38.8465 348.828 39.1203 350.621C39.4066 352.41 39.8298 354.153 40.4064 355.813C40.9748 357.473 41.6883 359.046 42.5139 360.507C42.9288 361.238 43.3727 361.939 43.8415 362.603C44.2148 363.126 44.9118 364.089 45.3848 364.388C47.5753 364.965 49.7782 365.517 51.9811 366.082C58.9881 367.895 68.8743 370.211 79.7271 379.492C80.1835 374.063 80.6771 367.846 81.0173 363.496C81.3077 359.789 81.092 356.054 80.3743 352.439C80.3702 352.418 80.366 352.402 80.3619 352.385C79.611 348.658 78.8227 344.935 78.0096 341.224C76.7691 335.592 75.4706 329.972 74.0933 324.386C71.3303 312.636 71.9775 311.104 71.7327 308.435C71.6663 307.709 71.6581 306.979 71.7203 306.256C71.7244 306.219 71.7286 306.182 71.7286 306.149C71.9236 303.716 72.1849 301.297 72.5292 298.902C73.4171 292.809 74.168 289.588 75.3794 284.807C74.5745 289.738 74.1057 293.008 73.7407 299.084C73.6038 301.475 73.5498 303.87 73.5581 306.252C73.5581 307.443 73.5913 308.635 73.637 309.818C73.6618 310.407 73.6909 311 73.7282 311.586C73.7448 311.88 73.7656 312.175 73.7904 312.461C73.8029 312.636 74.7778 316.836 75.1512 318.006C77.4454 325.22 79.5902 332.504 81.6479 339.834C82.6063 343.27 83.5397 346.715 84.4483 350.181C84.4483 350.181 84.9088 351.787 85.39 354.834C85.6057 354.166 87.398 349.21 88.265 347.172C92.646 336.87 97.0518 328.076 104.337 317.513C107.133 313.458 107.502 313.067 111.203 308.257C106.606 315.018 107.959 312.955 104.826 317.998C98.1761 328.951 94.21 338.074 90.4472 348.434C89.0823 352.543 88.3604 354.618 86.9748 360.03C86.8089 360.682 86.6471 361.338 86.5019 361.993C86.4189 362.363 86.3359 362.732 86.2529 363.097C86.5516 368.194 86.3608 373.316 85.7592 378.371C85.5145 380.434 83.1082 417.469 82.8303 431.049C82.208 461.559 87.5888 496.083 87.5888 496.083C87.5888 496.083 55.329 506.135 61.8839 493.983C66.2772 485.835 76.8355 412.214 79.1297 386.336C78.9596 386.145 78.7854 385.954 78.6112 385.763C68.8079 375.142 58.6106 371.681 51.3712 369.136C48.0357 367.974 44.6754 366.833 41.3357 365.571C39.3734 365.177 33.669 364.123 31.6653 363.865C29.6615 363.616 27.6452 363.417 25.629 363.313C23.6127 363.218 21.5924 363.176 19.572 363.28C17.5557 363.396 15.5396 363.624 13.5441 364.093C15.523 363.434 17.535 363.018 19.5554 362.711Z" fill="black"/>
<path d="M25.4588 504.558C25.4588 504.558 33.225 492.812 47.3677 495.336C47.3677 495.336 55.1547 478.788 76.769 478.597C98.6738 478.402 102.835 493.667 102.835 493.667C102.835 493.667 109.074 488.401 123.221 493.809C137.364 499.221 142.359 508.974 142.359 508.974L25.4588 504.558Z" fill="#61BDF2"/>
</svg>
