<svg width="502" height="360" viewBox="0 0 502 360" fill="none" xmlns="http://www.w3.org/2000/svg">
<path opacity="0.9" d="M3.05176e-05 315.072V277.419H16.5009V284.949H22.2912V269.889H43.4237V284.949H48.0553V273.364H52.6869V203.853H58.4771V159.829H86.5584L86.2666 212.895L105.004 213.12V170.628H134.039V215.791L142.724 216.08V170.544H152.857V151.14H158.936V138.106H182.675V151.14H188.754V170.544H198.887V195.213L203.562 195.505L204.966 122.421H236.234V161.3L247.237 161.589V100.823H251.001V88H284.003V100.823H287.768V196.47H294.714V157.178H300.504V144.694H308.901V108.249H321.059V144.694H329.455V157.178H335.246V200.376H339.299L342.483 200.332V150.284L428.178 151.102V263.804H435.416V249.033H461.471V277.416H468.998V266.99H485.499V284.946V288.132H502V315.067H3.05176e-05V315.072Z" fill="#3A68B8" fill-opacity="0.3"/>
<g opacity="0.2">
<path opacity="0.2" d="M410.78 160.318H420.922V173.458H410.78V160.318Z" fill="#085FCC"/>
<path opacity="0.2" d="M410.78 202.584H420.922V215.725H410.78V202.584Z" fill="#085FCC"/>
<path opacity="0.2" d="M395.201 160.318H405.343V173.458H395.201V160.318Z" fill="#085FCC"/>
<path opacity="0.2" d="M379.619 160.318H389.76V173.458H379.619V160.318Z" fill="#085FCC"/>
<path opacity="0.2" d="M379.619 231.184H389.76V244.325H379.619V231.184Z" fill="#085FCC"/>
<path opacity="0.2" d="M395.201 181.283H405.343V194.424H395.201V181.283Z" fill="#085FCC"/>
<path opacity="0.2" d="M395.201 253.627H405.343V266.767H395.201V253.627Z" fill="#085FCC"/>
<path opacity="0.2" d="M395.201 202.584H405.343V215.725H395.201V202.584Z" fill="#085FCC"/>
<path opacity="0.2" d="M366.227 202.584H376.369V215.725H366.227V202.584Z" fill="#085FCC"/>
<path opacity="0.2" d="M366.227 253.627H376.369V266.767H366.227V253.627Z" fill="#085FCC"/>
<path opacity="0.2" d="M353.479 160.318H363.621V173.458H353.479V160.318Z" fill="#085FCC"/>
<path opacity="0.2" d="M275.768 108.197H281.399V115.496H275.768V108.197Z" fill="#085FCC"/>
<path opacity="0.2" d="M264.049 108.197H269.683V115.496H264.049V108.197Z" fill="#085FCC"/>
<path opacity="0.2" d="M275.768 121.081H281.399V128.379H275.768V121.081Z" fill="#085FCC"/>
<path opacity="0.2" d="M252.333 121.081H257.964V128.379H252.333V121.081Z" fill="#085FCC"/>
<path opacity="0.2" d="M264.049 133.961H269.683V141.26H264.049V133.961Z" fill="#085FCC"/>
<path opacity="0.2" d="M252.333 133.961H257.964V141.26H252.333V133.961Z" fill="#085FCC"/>
<path opacity="0.2" d="M275.768 146.845H281.399V154.143H275.768V146.845Z" fill="#085FCC"/>
<path opacity="0.2" d="M252.333 146.845H257.964V154.143H252.333V146.845Z" fill="#085FCC"/>
<path opacity="0.2" d="M275.768 159.728H281.399V167.027H275.768V159.728Z" fill="#085FCC"/>
<path opacity="0.2" d="M264.049 159.728H269.683V167.027H264.049V159.728Z" fill="#085FCC"/>
<path opacity="0.2" d="M252.333 172.611H257.964V179.91H252.333V172.611Z" fill="#085FCC"/>
<path opacity="0.2" d="M275.768 198.376H281.399V205.674H275.768V198.376Z" fill="#085FCC"/>
<path opacity="0.2" d="M184.503 176.841H190.134V184.139H184.503V176.841Z" fill="#085FCC"/>
<path opacity="0.2" d="M153.211 176.841H158.843V184.139H153.211V176.841Z" fill="#085FCC"/>
<path opacity="0.2" d="M169.273 157.014H174.904V164.312H169.273V157.014Z" fill="#085FCC"/>
<path opacity="0.2" d="M78.7362 168.027H84.3675V175.326H78.7362V168.027Z" fill="#085FCC"/>
<path opacity="0.2" d="M59.8949 168.027H65.5291V175.326H59.8949V168.027Z" fill="#085FCC"/>
<path opacity="0.2" d="M59.8949 181.038H65.5291V188.336H59.8949V181.038Z" fill="#085FCC"/>
<path opacity="0.2" d="M78.7362 194.051H84.3675V201.35H78.7362V194.051Z" fill="#085FCC"/>
<path opacity="0.2" d="M59.8949 194.051H65.5291V201.35H59.8949V194.051Z" fill="#085FCC"/>
<path opacity="0.2" d="M78.7362 207.062H84.3675V214.361H78.7362V207.062Z" fill="#085FCC"/>
<path opacity="0.2" d="M69.3171 220.073H74.9483V227.371H69.3171V220.073Z" fill="#085FCC"/>
<path opacity="0.2" d="M59.8949 220.073H65.5291V227.371H59.8949V220.073Z" fill="#085FCC"/>
<path opacity="0.2" d="M59.8949 233.086H65.5291V240.385H59.8949V233.086Z" fill="#085FCC"/>
<path opacity="0.2" d="M78.7362 246.097H84.3675V253.396H78.7362V246.097Z" fill="#085FCC"/>
<path opacity="0.2" d="M69.3171 246.097H74.9483V253.396H69.3171V246.097Z" fill="#085FCC"/>
<path opacity="0.2" d="M157.17 157.014H162.804V164.312H157.17V157.014Z" fill="#085FCC"/>
<path opacity="0.2" d="M184.503 191.528H190.134V198.827H184.503V191.528Z" fill="#085FCC"/>
<path opacity="0.2" d="M174.072 191.528H179.704V198.827H174.072V191.528Z" fill="#085FCC"/>
<path opacity="0.2" d="M184.503 206.212H190.134V213.511H184.503V206.212Z" fill="#085FCC"/>
<path opacity="0.2" d="M163.642 206.212H169.273V213.511H163.642V206.212Z" fill="#085FCC"/>
<path opacity="0.2" d="M153.211 206.212H158.843V213.511H153.211V206.212Z" fill="#085FCC"/>
<path opacity="0.2" d="M174.072 220.899H179.704V228.198H174.072V220.899Z" fill="#085FCC"/>
<path opacity="0.2" d="M184.503 235.587H190.134V242.885H184.503V235.587Z" fill="#085FCC"/>
<path opacity="0.2" d="M163.642 235.587H169.273V242.885H163.642V235.587Z" fill="#085FCC"/>
<path opacity="0.2" d="M153.211 235.587H158.843V242.885H153.211V235.587Z" fill="#085FCC"/>
<path opacity="0.2" d="M184.503 264.958H190.134V272.257H184.503V264.958Z" fill="#085FCC"/>
<path opacity="0.2" d="M163.642 264.958H169.273V272.257H163.642V264.958Z" fill="#085FCC"/>
<path opacity="0.2" d="M353.479 231.184H363.621V244.325H353.479V231.184Z" fill="#085FCC"/>
<path opacity="0.2" d="M299.911 163.749H331.009V167.131H299.911V163.749Z" fill="#085FCC"/>
<path opacity="0.2" d="M208.1 154.169H233.37V157.551H208.1V154.169Z" fill="#085FCC"/>
<path opacity="0.2" d="M208.1 161.468H233.37V164.85H208.1V161.468Z" fill="#085FCC"/>
<path opacity="0.2" d="M208.1 183.368H233.37V186.75H208.1V183.368Z" fill="#085FCC"/>
<path opacity="0.2" d="M106.838 176.841H132.108V180.223H106.838V176.841Z" fill="#085FCC"/>
<path opacity="0.2" d="M106.838 184.139H132.108V187.521H106.838V184.139Z" fill="#085FCC"/>
<path opacity="0.2" d="M106.838 198.737H132.108V202.119H106.838V198.737Z" fill="#085FCC"/>
<path opacity="0.2" d="M106.838 220.636H132.108V224.018H106.838V220.636Z" fill="#085FCC"/>
<path opacity="0.2" d="M106.838 235.234H132.108V238.616H106.838V235.234Z" fill="#085FCC"/>
<path opacity="0.2" d="M106.838 249.831H132.108V253.213H106.838V249.831Z" fill="#085FCC"/>
<path opacity="0.2" d="M106.838 264.432H132.108V267.814H106.838V264.432Z" fill="#085FCC"/>
<path opacity="0.2" d="M208.1 205.264H233.37V208.646H208.1V205.264Z" fill="#085FCC"/>
<path opacity="0.2" d="M208.1 219.862H233.37V223.244H208.1V219.862Z" fill="#085FCC"/>
<path opacity="0.2" d="M299.911 173.458H331.009V176.841H299.911V173.458Z" fill="#085FCC"/>
<path opacity="0.2" d="M299.911 183.168H331.009V186.55H299.911V183.168Z" fill="#085FCC"/>
<path opacity="0.2" d="M299.911 202.59H331.009V205.972H299.911V202.59Z" fill="#085FCC"/>
<path opacity="0.2" d="M299.911 222.009H331.009V225.391H299.911V222.009Z" fill="#085FCC"/>
<path opacity="0.2" d="M299.911 231.722H331.009V235.104H299.911V231.722Z" fill="#085FCC"/>
<path opacity="0.2" d="M299.911 251.141H331.009V254.523H299.911V251.141Z" fill="#085FCC"/>
<path opacity="0.2" d="M299.911 270.563H331.009V273.945H299.911V270.563Z" fill="#085FCC"/>
<path opacity="0.3" d="M208.936 127.001H234.206V130.383H208.936V127.001Z" fill="#085FCC" fill-opacity="0.19"/>
<path opacity="0.3" d="M208.936 134.303H234.206V137.685H208.936V134.303Z" fill="#085FCC" fill-opacity="0.19"/>
</g>
<path d="M339.953 309.762L344.966 318.417L353.933 309.383C353.933 309.383 354.496 299.226 359.885 282.848C354.685 283.567 347.37 281.777 342.138 282.848C339.953 297.21 339.953 309.762 339.953 309.762Z" fill="#F48C7F"/>
<path d="M352.349 308.478C352.349 308.478 347.017 309.954 345.313 309.595C343.607 309.235 341.47 307.031 339.708 308.221C337.947 309.412 334.965 319.47 335.508 321.675C336.08 323.998 337.671 326.537 339.416 326.906C341.158 327.275 373.789 327.387 378.597 326.197C383.405 325.006 382.293 319.913 377.221 317.618C372.146 315.323 354.949 306.719 352.349 308.478Z" fill="#287540"/>
<path d="M382.579 216.84C379.378 198.832 308.916 197.022 308.916 197.022C294.289 201.653 299.756 208.515 289.134 217.42C293.055 224.173 296.648 229.76 298.111 230.01C301.877 230.649 355.948 230.771 355.948 230.771L344.59 294.777C350.449 295.714 354.013 295.06 359.882 296.193C368.99 269.835 385.294 232.113 382.579 216.84Z" fill="#FAA928"/>
<path d="M225.811 87.5144C228.453 96.6802 208.308 68.9807 200.145 69.5777C194.035 70.0237 187.848 71.9686 183.159 76.2113C163.104 94.3502 177.647 142.862 204.83 140.978C217.889 140.073 227.517 125.16 239.666 119.903C250.018 115.426 252.322 114.444 257.686 105.968C263.047 97.4986 264.956 84.3501 262.694 75.1971C261.161 68.9904 258.795 66.2689 254.62 63.4575C247.929 58.9549 216.609 55.614 225.811 87.5144Z" fill="#0B0A08"/>
<path d="M250.002 201.721C240.444 195.507 236.047 181.759 219.884 198.8C206.077 214.025 225.068 225.649 230.558 229.475C236.349 233.55 297.041 255.492 297.041 255.492C296.941 255.566 289.504 257.174 282.874 267.052C276.414 276.834 257.114 302.842 254.112 303.853C251.12 304.867 248.273 306.276 248.273 306.276L255.096 331.412C255.096 331.412 260.116 313.398 261.656 309.922C262.581 307.849 314.605 255.412 314.605 247.581C314.605 233.072 261.151 208.967 250.002 201.721Z" fill="#288340"/>
<path d="M223.095 322.535C223.259 341.592 207.755 357.07 188.674 356.91C170.146 356.752 155.005 341.63 154.848 323.128C154.687 304.075 170.188 288.596 189.269 288.757C207.794 288.914 222.938 304.033 223.095 322.535Z" fill="#0B0A08"/>
<path d="M188.97 350.179C204.095 350.179 216.356 337.936 216.356 322.833C216.356 307.73 204.095 295.487 188.97 295.487C173.845 295.487 161.584 307.73 161.584 322.833C161.584 337.936 173.845 350.179 188.97 350.179Z" fill="#352424"/>
<path d="M459.635 333.372C454.435 352.394 435.483 363.797 417.298 358.841C399.117 353.886 388.592 334.451 393.789 315.429C398.989 296.408 417.941 285.005 436.122 289.96C454.31 294.912 464.835 314.351 459.635 333.372Z" fill="#0B0A08"/>
<path d="M425.928 353.267C423.623 353.267 421.319 352.959 419.076 352.346C412.076 350.439 406.262 345.773 402.707 339.207C399.095 332.538 398.237 324.72 400.294 317.198C403.781 304.437 414.968 295.528 427.499 295.528C429.804 295.528 432.108 295.84 434.351 296.449C441.351 298.356 447.165 303.022 450.72 309.588C454.332 316.257 455.19 324.075 453.134 331.598C449.646 344.358 438.459 353.267 425.928 353.267Z" fill="#352424"/>
<path d="M311.943 168.722C315.003 167.667 316.292 166.389 315.662 165.837C315.029 165.285 305.201 168.986 303.918 168.973C302.636 168.96 315.279 164.948 315.363 164.133C315.447 163.318 315.071 163.177 314.212 163.167C313.351 163.158 304.326 167.753 303.218 167.23C302.106 166.707 310.414 163.703 311.796 163.209C313.181 162.715 311.882 161.883 309.199 162.397C306.522 162.91 303.655 165.635 299.586 165.998C295.524 166.36 294.829 165.619 295.398 165.202C295.967 164.781 299.232 165.077 300.071 164.814C300.91 164.55 301.119 163.09 297.96 163.257C294.804 163.424 292.711 164.961 291.767 166.081C290.825 167.201 269.835 167.256 262.459 164.72C259.949 163.86 256.741 158.344 256.504 152.872C249.137 153.995 245.75 154.884 239.113 158.507C242.986 170.744 248.427 182.715 253.367 183.155C263.851 184.092 293.724 173.084 293.724 173.084C293.724 173.084 301.161 174.188 304.529 173.61C307.9 173.036 311.481 172.121 312.49 170.532C313.502 168.944 305.663 171.409 304.23 171.222C302.797 171.036 308.89 169.778 311.943 168.722Z" fill="#F48C7F"/>
<path d="M252.133 117.178C249.327 114.293 239.933 109.604 234.948 123.057C232.386 130.185 234.762 146.35 239.116 160.122C245.75 156.498 252.888 154.326 260.251 153.202C259.788 142.512 260.807 126.263 252.133 117.178Z" fill="#EFE7D3"/>
<path d="M411.022 169.807L436.775 168.35L435.299 176.592L411.022 176.345V169.807Z" fill="#085FCC"/>
<path d="M402.344 177.904L378.05 322.833L418.883 289.764L417.453 178.492L402.344 177.904Z" fill="#085FCC"/>
<path d="M215.578 245.004L212.856 247.447L161.78 283.718L159.209 304.065C159.209 304.065 218.049 307.165 227.652 310.888C237.153 314.608 238.997 339.807 238.997 339.807L363.057 339.99C373.245 340.003 383.919 334.724 391.465 326.094C401.007 315.423 414.576 302.149 423.382 299.822C438.607 295.843 457.768 299.562 457.768 299.562L470.003 293.558C470.003 293.558 455.875 268.625 421.319 281.18C387.878 293.786 389.286 324.216 360.856 326.174C341.148 327.544 303.729 326.896 282.803 326.376C273.087 326.135 265.695 318.112 266.579 308.507C267.164 302.21 269.07 295.22 273.82 289.383C286.078 274.735 314.595 257.139 314.595 257.139L315.816 246.609L215.578 245.004Z" fill="#0B0A08"/>
<path d="M205.059 236.747L205.184 240.206L320.676 241.089L321.842 231.31L213.363 229.478C208.642 229.394 204.911 232.661 205.059 236.747Z" fill="#085FCC"/>
<path d="M212.856 247.447L209.86 240.242L317.581 241.063L316.009 248.191L212.856 247.447Z" fill="#352424"/>
<path d="M204.454 277.213C203.683 276.985 202.909 276.77 202.128 276.577C168.6 268.252 140.106 292.216 147.051 323.6L222.97 323.796L238.994 339.807C238.994 339.807 234.938 286.398 204.454 277.213Z" fill="#085FCC"/>
<path d="M440.644 135.981C441.837 131.116 441.284 127.152 439.413 127.127C437.54 127.104 435.087 131.029 433.937 135.898C432.857 140.461 433.275 144.229 434.84 144.701L411.783 176.893L415.341 177.968L435.393 144.736C437.196 144.454 439.5 140.647 440.644 135.981Z" fill="#0B0A08"/>
<path d="M404.208 166.784L398.555 167.564L393.458 176.264L403.064 178.614L404.208 166.784Z" fill="#0B0A08"/>
<path d="M427.496 232.231C426.693 239.167 420.676 245.239 414.084 245.791C407.499 246.346 402.662 241.163 403.254 234.218C403.829 227.27 409.781 221.198 416.575 220.652C423.382 220.11 428.283 225.296 427.496 232.231Z" fill="#0B0A08"/>
<path d="M427.503 232.193C426.702 239.109 421.47 245.094 415.839 245.569C410.215 246.041 406.175 240.813 406.795 233.891C407.4 226.965 412.574 220.976 418.378 220.511C424.189 220.046 428.283 225.277 427.503 232.193Z" fill="#F16D4A"/>
<path d="M407.782 233.807C408.232 228.727 412.095 221.811 418.301 221.317C424.273 220.842 427.127 226.788 426.513 232.273C425.774 238.733 421.014 244.334 415.926 244.76C410.131 245.248 407.284 239.298 407.782 233.807Z" fill="#F4C338"/>
<path d="M392.352 33.4537C392.146 40.45 393.303 40.1868 393.255 41.0854C393.194 42.1477 384.883 53.7365 384.883 53.7365C384.883 53.7365 360.602 88.0503 359.23 89.8604L322.186 112.069L327.463 133.622C327.463 133.622 367.152 108.388 369.006 106.706C370.861 105.024 398.43 54.8694 400.994 50.5304C400.994 50.5304 405.915 46.461 408.926 43.8069C411.938 41.1496 413.651 37.2952 414.39 36.4191C414.499 36.2907 416.787 33.2258 418.626 28.7136C420.213 24.8239 416.964 27.8118 416.964 27.8118C416.964 27.8118 412.76 34.5096 412.304 34.0924C411.95 33.7714 414.457 30.2476 416.257 25.96C416.72 24.8592 417.173 23.768 417.581 22.7635C418.651 20.1287 417.376 18.7423 415.826 21.329C415.277 22.2404 414.406 23.7809 413.933 24.9619C413.426 26.2392 412.551 27.2565 411.963 28.2643C410.793 30.2733 409.967 31.7496 409.913 31.6565C409.842 31.5378 409.338 31.7752 409.791 30.591C410.337 29.1661 412.156 26.39 412.802 24.2334C413.169 23.0106 414.088 20.5042 414.088 20.5042C414.088 20.5042 414.782 16.4637 414.563 16.3481C413.381 15.7223 412.14 18.3604 411.854 20.0806C411.118 21.0915 410.228 23.7584 410.228 23.7584C410.228 23.7584 407.239 28.7617 406.541 28.3573C406.246 28.184 407.721 24.9009 408.676 21.4606C409.559 18.2673 409.942 14.904 409.35 14.644C408.344 14.2011 406.991 17.6511 406.991 17.6511C406.991 17.6511 406.169 20.1159 405.838 20.9118C405.446 21.8489 404.064 24.5639 404.064 24.5639C404.064 24.5639 398.818 33.8003 398.195 33.3606C397.568 32.921 396.421 31.1302 396.553 30.4498C396.684 29.7662 397.568 28.6301 397.7 27.9498C397.832 27.2662 397.427 26.2745 396.617 26.0627C395.807 25.8509 393.927 28.9254 393.927 28.9254C393.927 28.9254 392.413 31.4318 392.352 33.4537Z" fill="#F8A492"/>
<path d="M345.863 95.2391C344.626 94.7288 306.814 110.207 305.104 118.275C303.391 126.344 313.168 141.135 323.867 137.461C334.566 133.789 358.037 115.952 358.037 115.952C358.037 115.952 349.864 96.8855 345.863 95.2391Z" fill="#287540"/>
<path d="M308.916 197.025L311.008 191.605C311.008 191.605 334.791 145.985 334.425 122.582C334.206 112.207 323.674 106.78 322.292 106.481C315.392 105.002 301.338 97.0395 289.809 104.938C276.234 114.434 260.656 159.521 260.248 172.888C259.84 186.258 258.66 210.873 265.033 221.541C275.549 212.635 294.289 201.656 308.916 197.025Z" fill="#35974D"/>
<path d="M324.658 310.686L329.671 319.341L338.638 310.307C338.638 310.307 339.201 300.15 344.593 283.773C339.393 284.492 332.079 282.701 326.846 283.773C324.658 298.134 324.658 310.686 324.658 310.686Z" fill="#F7A491"/>
<path d="M337.054 309.406C337.054 309.406 331.725 310.882 330.018 310.522C328.315 310.163 326.175 307.958 324.413 309.152C322.652 310.343 319.67 320.401 320.213 322.605C320.785 324.929 322.376 327.468 324.121 327.837C325.866 328.203 358.497 328.318 363.305 327.127C368.113 325.937 367.001 320.844 361.929 318.549C356.855 316.251 339.654 307.644 337.054 309.406Z" fill="#288340"/>
<path d="M361.216 218.492C362.707 200.263 308.916 197.025 308.916 197.025C294.289 201.656 275.761 206.868 265.143 215.774C269.064 222.523 277.645 229.763 279.104 230.014C282.87 230.652 329.241 233.04 329.241 233.04L319.204 295.532L344.144 298.134C346.053 293.872 359.368 241.089 361.216 218.492Z" fill="#F4C338"/>
<path d="M236.918 303.857C233.926 304.871 231.078 306.28 231.078 306.28L237.902 331.415C237.902 331.415 242.922 313.401 244.461 309.925C244.619 309.576 246.254 307.923 248.864 305.384C247.013 302.281 245.322 299.065 243.188 296.199C240.216 300.503 237.866 303.536 236.918 303.857Z" fill="#F7A491"/>
<path d="M238.885 316.755C237.953 312.409 238.737 307.775 236.748 303.914C233.82 304.922 230.837 305.679 230.837 305.679C230.837 305.679 234.729 333.302 239.277 334.143C242.131 334.672 239.46 325.824 241.106 320.269C240.029 319.361 239.187 318.26 238.885 316.755Z" fill="#287540"/>
<path d="M300.219 245.832C300.219 231.323 254.881 211.929 244.821 203.238C244.406 202.882 218.853 181.759 202.69 198.8C188.883 214.025 207.874 225.649 213.363 229.474C219.155 233.55 273.373 248.178 273.373 248.178C272.319 249.231 266.071 253.875 259.444 263.756C255.022 270.451 246.422 285.544 239.974 294.883C242.109 297.752 247.016 302.281 248.867 305.381C261.704 292.881 300.219 252.344 300.219 245.832Z" fill="#35974D"/>
<path d="M205.055 181.178L197.885 208.027L245.477 203.79L239.39 185.523L205.055 181.178Z" fill="#35974D"/>
<path d="M242.366 168.35C244.496 166.142 250.407 158.257 252.882 150.648C257.667 135.923 250.06 114.777 248.986 114.03C248.986 114.03 220.749 108.404 214.951 118.792C205.753 135.272 204.095 167.625 201.588 189.448C201.241 192.484 231.589 192.433 241.569 188.553C240.518 180.116 240.039 170.793 242.366 168.35Z" fill="#FEF6E4"/>
<path d="M314.598 171.714C310.369 169.49 319.94 116.119 302.581 106.481C302.581 106.481 295.668 101.921 286.682 109.591C277.847 117.268 291.705 190.093 300.222 194.602C312.937 201.326 357.324 185.141 368.595 182.465L367.271 170.722C367.268 170.722 318.342 173.687 314.598 171.714Z" fill="#F7A491"/>
<path d="M314.598 159.399C315.042 140.891 314.18 112.926 302.581 106.485C302.581 106.485 295.668 101.924 286.682 109.594C281.54 114.062 278.156 143.645 282.163 166.813C289.931 162.5 305.503 159.297 314.598 159.399Z" fill="#287540"/>
<path d="M392.307 132.977C393.769 128.125 396.456 124.312 398.301 124.463C400.146 124.614 400.422 128.67 398.921 133.523C397.52 138.07 395.087 141.707 393.3 142.021L398.725 175.549L394.679 176.264L392.738 141.999C391.121 141.556 390.909 137.634 392.307 132.977Z" fill="#0B0A08"/>
<path d="M401.406 129.482C401.406 136.777 396.501 142.692 390.453 142.692C384.404 142.692 379.5 136.777 379.5 129.482C379.5 122.188 384.404 116.273 390.453 116.273C396.501 116.273 401.406 122.188 401.406 129.482Z" fill="#0B0A08"/>
<path d="M422.338 167.474L420.644 178.466L403.064 178.614L404.208 166.784L422.338 167.474Z" fill="#669CDF"/>
<path d="M238.033 95.13C238.033 95.13 236.616 108.359 235.032 112.014C233.447 115.67 233.441 128.866 241.617 131.318C249.793 133.773 249.944 116.838 250.355 112.919C250.767 109.001 251.368 96.173 251.368 96.173L238.033 95.13Z" fill="#F7A491"/>
<path d="M237.548 99.1416C238.371 100.031 239.338 100.846 240.46 101.558C244.397 104.055 248.048 104.052 251.037 102.608C251.226 99.1127 251.365 96.173 251.365 96.173L238.03 95.13C238.033 95.13 237.853 96.8117 237.548 99.1416Z" fill="#F47458"/>
<path d="M243.073 68.2168C243.073 68.2168 238.11 69.2566 234.977 73.7528C231.843 78.2523 229.375 92.4631 239.316 98.7693C249.259 105.076 257.371 95.4381 257.654 86.8628C257.937 78.2844 256.25 66.8175 243.073 68.2168Z" fill="#F7A491"/>
<path d="M235.25 85.2197C235.938 87.4566 235.234 89.6453 233.672 90.1106C232.113 90.576 230.288 89.1382 229.6 86.9046C228.912 84.6677 229.616 82.4789 231.178 82.0136C232.737 81.545 234.562 82.9828 235.25 85.2197Z" fill="#F7A491"/>
<path d="M245.056 67.1032C245.056 67.1032 238.509 80.7812 232.952 81.959C227.395 83.1368 227.35 90.0465 227.35 90.0465C227.35 90.0465 227.758 74.0898 233.01 70.4762C238.265 66.8625 245.056 67.1032 245.056 67.1032Z" fill="#0B0A08"/>
<path d="M199.19 115.008C199.19 127.512 189.818 137.65 178.261 137.65C166.701 137.65 157.332 127.512 157.332 115.008C157.332 102.505 166.704 92.3668 178.261 92.3668C189.818 92.3668 199.19 102.505 199.19 115.008Z" fill="#0B0A08"/>
<path d="M387.84 319.447L368.592 326.492L392.249 192.658L385.368 190.578L393.458 176.264L403.064 178.614L387.84 319.447Z" fill="#0B0A08"/>
<path d="M364.812 169.807C364.812 169.807 393.458 168.27 399.41 169.695C401.309 170.151 399.969 175.937 398.468 177.185C391.539 182.946 364.812 182.484 364.812 182.484V169.807Z" fill="#085FCC"/>
<path d="M369.087 176.101C369.087 179.615 367.174 182.465 364.812 182.465C362.453 182.465 360.538 179.615 360.538 176.101C360.538 172.587 362.45 169.737 364.812 169.737C367.171 169.737 369.087 172.587 369.087 176.101Z" fill="#0B0A08"/>
<path d="M369.087 169.602C369.087 169.602 375.18 163.937 377.539 163.937C379.898 163.937 383.099 164.724 384.112 164.724C384.674 164.724 389.906 174.438 388.576 175.789C387.766 176.611 383.562 169.088 383.562 169.088C383.562 169.088 388.364 176.839 386.217 177.384C385.024 177.689 380.782 169.887 380.782 169.887C380.782 169.887 384.449 176.344 384.025 176.592C382.17 177.68 375.065 169.547 375.065 169.547L369.087 169.602Z" fill="#F7A491"/>
<path d="M228.954 110.785C228.954 110.785 205.698 73.7369 201.167 65.5243C197.066 58.0916 178.428 30.0969 177.859 28.903C177.287 27.7091 185.132 12.5259 183.024 12.144C180.916 11.7621 179.415 20.1191 177.123 19.2623C174.829 18.4118 166.53 -1.0141 165.37 0.0417621C163.201 2.01548 169.995 12.1216 168.809 12.8501C167.623 13.5818 162.683 1.65283 160.263 2.15348C157.843 2.65413 165.987 13.017 165.389 14.0086C164.795 15.0003 156.439 5.27613 155.304 7.51943C154.69 8.73575 162.944 15.9888 161.565 16.7911C160.189 17.5934 153.026 13.0202 152.45 14.4932C151.878 15.9663 158.962 17.5228 161.391 21.2617C163.821 25.0005 167.491 26.4639 169.629 33.5244C170.683 37.0097 182.195 61.4517 192.627 81.6607C203.323 102.377 212.933 118.831 212.933 118.831L228.954 110.785Z" fill="#F7A491"/>
<path d="M234.029 119.553C233.225 115.384 218.914 92.3669 218.914 92.3669C218.914 92.3669 201.064 100.714 199.187 105.987C199.187 105.987 217.243 132.66 215.186 133.302L234.029 119.553Z" fill="#FEF6E4"/>
<path d="M232.714 102.752C231.307 99.344 234.373 94.6167 234.858 93.8978C235.003 93.6892 233.184 92.3638 232.817 92.3638C231.458 92.3638 229.976 99.4018 231.551 103.224C232.496 105.515 234.832 106.985 238.493 107.595L238.699 106.36C235.498 105.83 233.482 104.614 232.714 102.752Z" fill="#F4C338"/>
<path d="M224.397 69.3178C222.774 73.753 222.674 83.4034 226.753 90.1975C229.899 95.4351 234.09 94.9954 234.987 94.5461C235.886 94.0968 230.31 89.3213 232.219 78.2172C234.161 66.9268 245.165 67.3152 250.77 69.6708C256.375 72.0264 259.297 86.8405 256.507 92.2258C253.714 97.611 266.518 88.6121 263.037 73.8974C259.891 60.6013 248.748 55.5884 237.095 58.7592C231.708 60.2258 226.386 63.8748 224.397 69.3178Z" fill="#F16D4A"/>
<path d="M240.373 109.591C231.229 109.591 230.567 104.004 230.542 103.75L233.897 103.423L233.891 103.372C233.913 103.506 234.527 106.709 241.961 106.164C242.886 106.096 243.696 106.793 243.764 107.72C243.831 108.648 243.134 109.453 242.205 109.521C241.562 109.569 240.952 109.591 240.373 109.591Z" fill="#F16D4A"/>
<path d="M322.797 47.5137C322.797 47.5137 316.192 40.5624 310.88 49.0189C310.88 49.0189 306.788 46.7242 303.918 50.8129C303.918 50.8129 296.523 48.592 294.73 59.6288C294.73 59.6288 290.925 58.9131 290.423 63.4286C289.922 67.9441 292.216 70.9544 292.216 70.9544C292.216 70.9544 290.079 72.5559 291.05 76.7055C291.876 80.2357 294.8 80.7717 294.8 80.7717C294.8 80.7717 295.591 86.7217 298.175 88.5125C300.759 90.3033 304.275 89.4432 304.275 89.4432C304.275 89.4432 305.207 92.6685 308.222 92.3829C311.236 92.0973 314.971 89.2282 318.342 90.5183C321.717 91.8084 330.475 90.4477 330.475 90.4477C330.475 90.4477 340.309 86.0766 337.365 76.0412C337.365 76.0412 342.533 71.3813 338.011 65.7907C338.011 65.7907 341.312 57.0453 334.781 51.8848C328.251 46.7242 322.797 47.5137 322.797 47.5137Z" fill="#0B0A08"/>
<path d="M321.682 94.7162L322.877 103.574C322.877 103.574 325.554 116.334 322.109 118.792C318.664 121.254 307.457 103.211 307.457 103.211L308.64 80.7686L321.682 94.7162Z" fill="#F7A491"/>
<path d="M308.26 88.0408C311.105 95.695 317.886 100.4 322.697 102.226L321.685 94.7162L308.646 80.7686L308.26 88.0408Z" fill="#F47458"/>
<path d="M290.304 65.5179C290.304 68.9358 292.252 71.7054 294.653 71.7054C297.053 71.7054 299.001 68.9358 299.001 65.5179C299.001 62.0999 297.053 59.3303 294.653 59.3303C292.252 59.3271 290.304 62.0999 290.304 65.5179Z" fill="#0B0A08"/>
<path d="M303.349 52.2153C303.349 54.1794 305.718 55.7713 308.64 55.7713C311.561 55.7713 313.93 54.1794 313.93 52.2153C313.93 50.2512 311.561 48.6594 308.64 48.6594C305.715 48.6562 303.349 50.2512 303.349 52.2153Z" fill="#0B0A08"/>
<path d="M316.604 57.193C323.594 54.7892 331.047 59.4267 332.114 66.6251C332.577 69.7542 332.998 73.6856 333.075 77.9893C333.261 88.3329 327.9 98.4004 323.195 98.4004C318.49 98.4004 305.49 91.7026 305.021 77.0201C304.731 67.9506 309.266 59.7123 316.604 57.193Z" fill="#F7A491"/>
<path d="M308.488 78.1786C308.488 80.4604 306.975 82.309 305.104 82.309C303.237 82.309 301.72 80.4604 301.72 78.1786C301.72 75.8968 303.234 74.0482 305.104 74.0482C306.975 74.045 308.488 75.8968 308.488 78.1786Z" fill="#F7A491"/>
<path d="M336.983 52.0453C341.842 55.89 343.546 61.7278 340.785 65.0879C338.028 68.448 331.85 68.0565 326.994 64.215C322.135 60.3702 320.431 54.5325 323.192 51.1692C325.946 47.809 332.124 48.2006 336.983 52.0453Z" fill="#0B0A08"/>
<path d="M324.278 55.1969C324.278 56.8657 322.26 58.22 319.766 58.22C317.275 58.22 315.254 56.8657 315.254 55.1969C315.254 53.5248 317.275 52.1737 319.766 52.1737C322.257 52.1737 324.278 53.5248 324.278 55.1969Z" fill="#0B0A08"/>
<path d="M337.703 68.0501C337.703 70.1971 335.977 71.9398 333.853 71.9398C331.725 71.9398 330.002 70.2003 330.002 68.0501C330.002 65.903 331.725 64.1604 333.853 64.1604C335.977 64.1636 337.703 65.903 337.703 68.0501Z" fill="#0B0A08"/>
</svg>
