<svg width="25" height="25" viewBox="0 0 25 25" fill="none" xmlns="http://www.w3.org/2000/svg">
<g clip-path="url(#clip0)">
<path d="M12.5 0C10.0277 0 7.61099 0.733112 5.55538 2.10663C3.49976 3.48015 1.89761 5.43238 0.951511 7.71646C0.00541601 10.0005 -0.242126 12.5139 0.24019 14.9386C0.722505 17.3634 1.91301 19.5907 3.66117 21.3388C5.40933 23.087 7.63661 24.2775 10.0614 24.7598C12.4861 25.2421 14.9995 24.9946 17.2835 24.0485C19.5676 23.1024 21.5199 21.5002 22.8934 19.4446C24.2669 17.389 25 14.9723 25 12.5C24.9964 9.1859 23.6783 6.00858 21.3348 3.66516C18.9914 1.32174 15.8141 0.00361886 12.5 0V0ZM12.5 23.8281C10.2595 23.8281 8.06934 23.1637 6.20644 21.919C4.34354 20.6742 2.89158 18.905 2.03418 16.8351C1.17678 14.7651 0.952449 12.4874 1.38955 10.29C1.82665 8.09255 2.90554 6.07407 4.48981 4.48981C6.07408 2.90554 8.09256 1.82664 10.29 1.38954C12.4874 0.952444 14.7651 1.17678 16.8351 2.03418C18.905 2.89158 20.6742 4.34353 21.919 6.20643C23.1637 8.06933 23.8281 10.2595 23.8281 12.5C23.8245 15.5033 22.6299 18.3825 20.5062 20.5062C18.3826 22.6298 15.5033 23.8245 12.5 23.8281Z" fill="black"/>
<path d="M17.9922 6.99021C17.8824 6.88049 17.7334 6.81885 17.5782 6.81885C17.4229 6.81885 17.274 6.88049 17.1641 6.99021L12.5 11.6699L7.83793 6.9824C7.72785 6.87233 7.57856 6.81049 7.42289 6.81049C7.26722 6.81049 7.11793 6.87233 7.00785 6.9824C6.89778 7.09248 6.83594 7.24177 6.83594 7.39744C6.83594 7.55311 6.89778 7.7024 7.00785 7.81248L11.6719 12.5L7.00785 17.1875C6.89804 17.2976 6.83644 17.4467 6.83663 17.6022C6.83681 17.7577 6.89875 17.9068 7.00883 18.0166C7.1189 18.1264 7.2681 18.188 7.42358 18.1878C7.57907 18.1876 7.72811 18.1257 7.83793 18.0156L12.5 13.3301L17.1641 18.0176C17.2742 18.1276 17.4235 18.1895 17.5791 18.1895C17.7348 18.1895 17.8841 18.1276 17.9942 18.0176C18.1043 17.9075 18.1661 17.7582 18.1661 17.6025C18.1661 17.4468 18.1043 17.2976 17.9942 17.1875L13.3282 12.5L17.9942 7.81248C18.1019 7.70261 18.162 7.55479 18.1617 7.40095C18.1613 7.2471 18.1004 7.09957 17.9922 6.99021Z" fill="black"/>
</g>
<defs>
<clipPath id="clip0">
<rect width="25" height="25" fill="white"/>
</clipPath>
</defs>
</svg>
