<svg width="35" height="36" viewBox="0 0 35 36" fill="none" xmlns="http://www.w3.org/2000/svg">
<path d="M17.4864 8.98413C12.5225 8.98413 8.50121 13.0011 8.50121 17.9554C8.50121 22.9116 12.5225 26.9285 17.4864 26.9285C22.4464 26.9285 26.4716 22.9116 26.4716 17.9554C26.4716 13.0011 22.4464 8.98413 17.4864 8.98413ZM17.4864 23.7848C14.262 23.7848 11.6479 21.1747 11.6479 17.9573C11.6479 14.7379 14.262 12.1298 17.4864 12.1298C20.7108 12.1298 23.321 14.7379 23.321 17.9573C23.321 21.1747 20.7108 23.7848 17.4864 23.7848Z" fill="#202020"/>
<path d="M26.8301 10.7459C27.9877 10.7459 28.9262 9.80928 28.9262 8.65394C28.9262 7.4986 27.9877 6.56201 26.8301 6.56201C25.6724 6.56201 24.734 7.4986 24.734 8.65394C24.734 9.80928 25.6724 10.7459 26.8301 10.7459Z" fill="#202020"/>
<path d="M34.0729 6.52739C33.1614 4.18125 31.3053 2.32607 28.9555 1.41983C27.5969 0.909459 26.1606 0.635839 24.7068 0.60479C22.8351 0.523287 22.2423 0.5 17.4961 0.5C12.7499 0.5 12.1415 0.5 10.2854 0.60479C8.83552 0.633899 7.39921 0.907518 6.04065 1.41983C3.68892 2.32607 1.8328 4.18125 0.923201 6.52739C0.412039 7.88578 0.137994 9.31792 0.108841 10.7695C0.0252665 12.6363 0 13.2282 0 17.969C0 22.7078 -1.44808e-08 23.3113 0.108841 25.1684C0.137994 26.62 0.412039 28.0521 0.923201 29.4125C1.83474 31.7567 3.69086 33.6118 6.04259 34.52C7.39532 35.0478 8.83163 35.3467 10.2893 35.3933C12.161 35.4748 12.7538 35.5 17.5 35.5C22.2462 35.5 22.8546 35.5 24.7107 35.3933C26.1625 35.3642 27.5988 35.0886 28.9594 34.5802C31.3091 33.6701 33.1653 31.8168 34.0768 29.4707C34.588 28.1123 34.862 26.6801 34.8912 25.2286C34.9747 23.3618 35 22.7699 35 18.0291C35 13.2883 35 12.6867 34.8912 10.8296C34.8659 9.35867 34.5938 7.90131 34.0729 6.52739ZM31.7056 25.0248C31.692 26.1426 31.4899 27.2507 31.1012 28.3005C30.5084 29.8277 29.3014 31.0348 27.7738 31.6208C26.734 32.007 25.6378 32.2088 24.528 32.2243C22.6816 32.3097 22.1607 32.3311 17.4261 32.3311C12.6877 32.3311 12.2037 32.3311 10.3224 32.2243C9.21646 32.2107 8.11639 32.007 7.07852 31.6208C5.54504 31.0367 4.3303 29.8297 3.73751 28.3005C3.35656 27.2642 3.15054 26.1678 3.13305 25.0617C3.04948 23.2182 3.03004 22.6981 3.03004 17.9709C3.03004 13.2417 3.03004 12.7585 3.13305 10.8781C3.14666 9.76037 3.34879 8.65425 3.73751 7.6044C4.3303 6.0733 5.54504 4.86821 7.07852 4.28216C8.11639 3.89793 9.21646 3.69417 10.3224 3.67864C12.1707 3.5952 12.6896 3.57191 17.4261 3.57191C22.1627 3.57191 22.6485 3.57191 24.528 3.67864C25.6378 3.69223 26.734 3.89599 27.7738 4.28216C29.3014 4.87015 30.5084 6.07718 31.1012 7.6044C31.4821 8.64066 31.6881 9.73708 31.7056 10.8432C31.7892 12.6887 31.8106 13.2068 31.8106 17.936C31.8106 22.6632 31.8106 23.1716 31.727 25.0268H31.7056V25.0248Z" fill="#202020"/>
</svg>
