<svg width="21" height="15" viewBox="0 0 21 15" fill="none" xmlns="http://www.w3.org/2000/svg">
<path d="M15.5 8.99997C15.723 8.99997 15.937 8.96597 16.15 8.93497C16.081 9.16697 16.01 9.40297 15.896 9.61497C15.782 9.92297 15.604 10.19 15.427 10.459C15.279 10.75 15.018 10.947 14.826 11.196C14.625 11.438 14.351 11.599 14.134 11.8C13.921 12.01 13.642 12.115 13.42 12.263C13.188 12.396 12.986 12.543 12.77 12.613C12.562 12.699 12.38 12.773 12.231 12.835C11.929 12.96 11.757 13.032 11.757 13.032L12.242 14.97C12.242 14.97 12.46 14.918 12.839 14.826C13.03 14.778 13.263 14.722 13.528 14.655C13.799 14.605 14.088 14.468 14.41 14.343C14.728 14.201 15.096 14.105 15.438 13.877C15.782 13.659 16.179 13.477 16.529 13.185C16.868 12.884 17.277 12.623 17.579 12.24C17.909 11.882 18.235 11.506 18.488 11.078C18.781 10.67 18.98 10.222 19.19 9.77897C19.38 9.33597 19.533 8.88297 19.658 8.44297C19.895 7.56097 20.001 6.72297 20.042 6.00597C20.076 5.28797 20.056 4.69097 20.014 4.25897C19.999 4.05497 19.971 3.85697 19.951 3.71997C19.934 3.61097 19.926 3.55197 19.926 3.55197L19.9 3.55797C19.465 1.52597 17.662 -2.88198e-05 15.5 -2.90088e-05C13.015 -2.92261e-05 11 2.01497 11 4.49997C11 6.98497 13.015 8.99997 15.5 8.99997ZM4.49998 8.99997C4.72298 8.99997 4.93698 8.96597 5.14998 8.93497C5.08098 9.16697 5.00998 9.40297 4.89598 9.61497C4.78198 9.92297 4.60398 10.19 4.42698 10.459C4.27898 10.75 4.01798 10.947 3.82598 11.196C3.62498 11.438 3.35098 11.599 3.13398 11.8C2.92098 12.01 2.64198 12.115 2.41998 12.263C2.18798 12.396 1.98598 12.543 1.76998 12.613C1.56198 12.699 1.37998 12.773 1.23098 12.835C0.928978 12.96 0.756977 13.032 0.756977 13.032L1.24198 14.97C1.24198 14.97 1.45998 14.918 1.83898 14.826C2.02998 14.778 2.26298 14.722 2.52798 14.655C2.79898 14.605 3.08798 14.468 3.40998 14.343C3.72698 14.2 4.09598 14.105 4.43798 13.876C4.78198 13.658 5.17898 13.476 5.52898 13.184C5.86798 12.883 6.27698 12.622 6.57898 12.24C6.90898 11.882 7.23498 11.506 7.48798 11.078C7.78098 10.67 7.97998 10.222 8.18998 9.77897C8.37998 9.33597 8.53298 8.88297 8.65798 8.44297C8.89498 7.56097 9.00098 6.72297 9.04198 6.00597C9.07598 5.28797 9.05598 4.69097 9.01398 4.25897C8.99898 4.05497 8.97098 3.85697 8.95098 3.71997C8.93398 3.61097 8.92598 3.55197 8.92598 3.55197L8.89998 3.55797C8.46498 1.52597 6.66198 -2.97815e-05 4.49998 -2.99705e-05C2.01498 -3.01877e-05 -2.17556e-05 2.01497 -2.19729e-05 4.49997C-2.21901e-05 6.98497 2.01498 8.99997 4.49998 8.99997Z" fill="#669CDF"/>
</svg>
