<svg width="20" height="15" viewBox="0 0 20 15" fill="none" xmlns="http://www.w3.org/2000/svg">
<path d="M10 0C4.486 0 0 4.486 0 10C0 11.55 0.354 13.045 1.051 14.445C1.221 14.785 1.567 15 1.946 15H18.053C18.432 15 18.779 14.785 18.949 14.445C19.646 13.045 20 11.55 20 10C20 4.486 15.514 0 10 0ZM17.41 13H2.59C2.198 12.042 2 11.035 2 10C2 5.589 5.589 2 10 2C14.411 2 18 5.589 18 10C18 11.035 17.802 12.042 17.41 13Z" fill="black"/>
<path d="M8.93901 8.93899C8.77101 9.04999 8.61601 9.20099 8.49901 9.37899C8.03401 10.087 8.23101 11.036 8.93901 11.5C9.64601 11.965 10.596 11.768 11.06 11.06L15.022 5.02199C15.028 5.01099 15.029 4.99799 15.022 4.98699C15.012 4.97199 14.992 4.96799 14.977 4.97699L8.93901 8.93899Z" fill="black"/>
</svg>
