<svg width="18" height="18" viewBox="0 0 18 18" fill="none" xmlns="http://www.w3.org/2000/svg">
<path d="M17.487 13.9548L13.422 10.2588C13.023 9.89582 12.407 9.91482 12.031 10.3018L9.63804 12.7628C9.06204 12.6528 7.90404 12.2918 6.71204 11.1028C5.52004 9.90982 5.15904 8.74882 5.05204 8.17682L7.51104 5.78282C7.89904 5.40682 7.91704 4.79182 7.55404 4.39182L3.85904 0.327818C3.49604 -0.0731816 2.87904 -0.111182 2.46804 0.240818L0.298038 2.10182C0.125038 2.27582 0.0220378 2.50582 0.00803782 2.75082C-0.00696218 3.00082 -0.292962 8.92282 4.29904 13.5168C8.30504 17.5218 13.323 17.8148 14.705 17.8148C14.907 17.8148 15.031 17.8088 15.064 17.8068C15.309 17.7928 15.539 17.6898 15.712 17.5158L17.572 15.3448C17.926 14.9338 17.887 14.3178 17.487 13.9548Z" fill="#3A68B8"/>
</svg>
