<svg width="20" height="12" viewBox="0 0 20 12" fill="none" xmlns="http://www.w3.org/2000/svg">
<path d="M14 3C12.372 3 11 4.372 11 6C11 7.628 12.372 9 14 9C15.628 9 17 7.628 17 6C17 4.372 15.628 3 14 3Z" fill="black"/>
<path d="M14 0H6C2.704 0 0.018 2.682 0 5.986C0 5.991 0 5.995 0 6V6.016C0 6.02 0 6.024 0 6.028C0.015 9.322 2.703 12 6 12H14C17.309 12 20 9.309 20 6C20 2.691 17.309 0 14 0ZM14 10H6C3.798 10 2.004 8.208 2 6.01C2.004 3.799 3.798 2 6 2H14C16.206 2 18 3.794 18 6C18 8.206 16.206 10 14 10Z" fill="black"/>
</svg>
