<svg width="80" height="50" viewBox="0 0 80 50" fill="none" xmlns="http://www.w3.org/2000/svg">
<rect width="31.9194" height="2.49076" rx="1.24538" transform="matrix(0.989768 -0.142685 0.142844 0.989745 29.4073 47.001)" fill="#7DC23C"/>
<rect width="15.7386" height="2.49076" rx="1.24538" transform="matrix(0.989768 -0.142685 0.142844 0.989745 17.196 42.5179)" fill="#7DC23C"/>
<rect width="13.7368" height="2.49076" rx="1.24538" transform="matrix(0.989768 -0.142685 0.142844 0.989745 18.9401 14.3057)" fill="#7DC23C"/>
<rect width="13.7368" height="2.49076" rx="1.24538" transform="matrix(0.989768 -0.142685 0.142844 0.989745 14.7034 20.4958)" fill="#7DC23C"/>
<rect width="23.9875" height="2.49076" rx="1.24538" transform="matrix(0.989768 -0.142685 0.142844 0.989745 6.05316 39.1445)" fill="#7DC23C"/>
<rect width="29.0065" height="2.49076" rx="1.24538" transform="matrix(0.989768 -0.142685 0.142844 0.989745 0 27.936)" fill="#7DC23C"/>
<rect width="2.49211" height="2.49076" rx="1.24538" transform="matrix(0.989768 -0.142685 0.142844 0.989745 25.9182 47.5348)" fill="#7DC23C"/>
<rect width="2.49211" height="2.49076" rx="1.24538" transform="matrix(0.989768 -0.142685 0.142844 0.989745 13.7064 43.0515)" fill="#7DC23C"/>
<rect width="2.49211" height="2.49076" rx="1.24538" transform="matrix(0.989768 -0.142685 0.142844 0.989745 15.4514 14.8391)" fill="#7DC23C"/>
<path d="M78.3779 39.4578L75.1381 39.7068C76.0519 40.7862 77.3312 43.3682 75.1381 45.0619C72.945 46.7556 71.0676 45.7676 70.403 45.0619L67.2878 45.5601C67.2878 45.5601 71.0261 50.666 76.1349 47.8017C79.6654 45.8223 79.1671 41.0767 78.3779 39.4578Z" fill="#7DC23C"/>
<path d="M60.933 17.913L57.3194 18.2866L58.1916 19.781H62.4282C63.3836 20.9434 65.4687 23.5919 66.1665 24.887C67.0387 26.506 65.668 28.6231 64.7958 30.3666C63.9235 32.1102 62.179 35.099 60.5591 36.2199C58.9392 37.3407 50.8398 38.337 48.0984 38.7106C45.3571 39.0842 41.8681 39.7069 40.9958 37.9634C40.1236 36.2199 42.1173 33.6046 42.8649 31.9856C43.463 30.6904 43.3634 29.3703 43.2387 28.8722C42.9895 28.0004 41.9927 27.727 40.2482 28.0004C33.8932 28.9967 20.3609 31.089 17.0713 31.4875C12.974 31.9838 13.0982 32.9747 13.2073 33.8443L13.2084 33.8537C13.3645 35.099 14.7868 35.2236 15.3268 35.099L29.9058 32.9819C32.3149 32.6913 37.1829 33.0815 37.3822 36.9671C37.5816 40.8526 34.8901 43.9826 33.5194 45.0619L63.0513 40.5786C63.0513 40.5786 63.0513 42.6958 65.2942 44.1902L67.7864 43.8166C67.7864 43.8166 68.1602 40.8277 69.7801 39.9559L79.3748 38.337C79.3748 38.337 78.5026 30.7403 69.7801 33.1064C69.7801 33.1064 72.1476 29.1213 69.5309 25.2606L65.9173 19.781C66.5403 19.7395 68.3097 19.6067 70.4031 19.4074C72.4965 19.2082 72.1892 17.996 71.7738 17.4149C71.2754 16.5016 70.1539 14.4011 69.6555 13.3052C69.157 12.2092 67.7864 12.4334 67.1633 12.6825L62.6775 14.426L60.933 17.913Z" fill="#7DC23C"/>
<path d="M47.8492 14.7998C48.9458 13.8035 48.4722 12.6826 48.0983 12.309C46.6029 10.9391 44.6095 13.928 44.2356 14.4261C43.966 14.7854 41.9927 17.415 42.8649 18.4113C43.7372 19.4076 45.7309 19.1585 45.9801 19.1585C46.1795 19.1585 52.0443 18.9925 54.9518 18.9095C56.6963 18.9095 56.7379 18.0377 56.5717 17.415C56.4388 16.9169 56.7462 16.2942 57.9424 16.2942C59.4377 16.2942 59.0639 18.0377 59.8115 17.0414C60.5592 16.0451 59.0639 14.1771 57.3194 14.3016C55.9238 14.4012 54.4949 15.6715 53.955 16.2942L51.4627 16.5433C49.768 16.6429 47.4442 17.1659 46.9769 16.5433C46.8523 16.3772 46.7527 15.796 47.8492 14.7998Z" fill="#7DC23C"/>
<path d="M51.089 10.6901C49.9675 9.94285 49.0952 8.69749 48.9706 7.57666C43.6124 7.95027 39.376 10.8146 35.887 13.6789C33.0958 15.9704 31.0689 20.0303 30.4043 21.7738H36.51C36.51 21.7738 32.6472 25.5099 37.133 26.7553C39.9868 27.5476 48.9707 25.2608 49.2199 26.7553C49.4691 28.2497 49.3445 29.246 48.4723 31.4877C47.7745 33.281 45.7724 35.4728 44.8587 36.3446L56.3225 35.4728C56.3225 35.4728 54.7026 33.4802 51.089 32.6085C52.0443 30.5329 53.9051 26.1824 53.7058 25.3854C53.4565 24.3891 52.3351 23.7664 49.4691 22.6456C47.1763 21.7489 44.7756 21.3587 43.8618 21.2757L44.7339 20.1548C43.2386 20.1548 42.7401 19.9056 42.2418 19.1586C41.3282 17.7887 41.6422 16.2942 42.2418 15.4225C43.1556 14.0941 45.357 11.3626 46.8523 11.0637C48.3476 10.7648 49.0537 11.6864 49.2199 12.1845L51.089 10.6901Z" fill="#7DC23C"/>
<path d="M58.9389 8.4483L49.2195 6.33118C49.0534 7.90864 50.4792 10.6044 53.0823 11.0636C57.319 11.8108 58.6066 9.4861 58.9389 8.4483Z" fill="#7DC23C"/>
<path d="M61.9298 8.69738L47.7245 5.58397C48.846 0.104365 53.0827 -0.269261 55.4502 0.104365C57.4801 0.424713 59.6868 1.84788 60.1853 4.58768C60.584 6.77952 61.5144 8.24075 61.9298 8.69738Z" fill="#7DC23C"/>
</svg>
