<svg width="20" height="20" viewBox="0 0 20 20" fill="none" xmlns="http://www.w3.org/2000/svg">
<path d="M9.99999 14C12.3411 14 14.2449 12.206 14.2449 10C14.2449 7.794 12.3411 6 9.99999 6C7.65893 6 5.7551 7.794 5.7551 10C5.7551 12.206 7.65893 14 9.99999 14ZM9.99999 8C11.1504 8 12.1224 8.916 12.1224 10C12.1224 11.084 11.1504 12 9.99999 12C8.84963 12 7.87755 11.084 7.87755 10C7.87755 8.916 8.84963 8 9.99999 8Z" fill="black"/>
<path d="M0.28449 14.136L1.34571 15.866C1.90923 16.783 3.26547 17.127 4.24286 16.596L4.80425 16.29C5.42188 16.747 6.1 17.122 6.81633 17.402V18C6.81633 19.103 7.76825 20 8.93878 20H11.0612C12.2318 20 13.1837 19.103 13.1837 18V17.402C13.9 17.122 14.5781 16.747 15.1958 16.291L15.7571 16.597C16.7367 17.127 18.0897 16.785 18.6553 15.866L19.7155 14.137C20.3013 13.182 19.9532 11.956 18.9398 11.405L18.4038 11.113C18.4611 10.742 18.4898 10.371 18.4898 10C18.4898 9.629 18.4611 9.257 18.4038 8.889L18.9398 8.597C19.9532 8.045 20.3013 6.82 19.7155 5.865L18.6553 4.136C18.0918 3.216 16.7367 2.871 15.7571 3.404L15.1958 3.71C14.5781 3.253 13.9 2.878 13.1837 2.598V2C13.1837 0.897 12.2318 0 11.0612 0H8.93878C7.76825 0 6.81633 0.897 6.81633 2V2.598C6.1 2.878 5.42188 3.253 4.80425 3.709L4.24286 3.403C3.26229 2.872 1.90816 3.216 1.34465 4.135L0.28449 5.864C-0.301305 6.819 0.0467761 8.045 1.06025 8.596L1.59616 8.888C1.53886 9.257 1.5102 9.629 1.5102 10C1.5102 10.371 1.53886 10.742 1.59616 11.111L1.06025 11.403C0.0467761 11.955 -0.301305 13.181 0.28449 14.136ZM3.81412 11.378C3.6942 10.925 3.63265 10.461 3.63265 10C3.63265 9.538 3.6942 9.074 3.81306 8.622C3.92767 8.189 3.72498 7.737 3.31429 7.514L2.12253 6.864L3.18163 5.135L4.39674 5.797C4.80425 6.018 5.31682 5.962 5.65747 5.655C6.38229 5.008 7.25673 4.524 8.18743 4.256C8.6342 4.128 8.93878 3.739 8.93878 3.3V2H11.0612V3.3C11.0612 3.739 11.3658 4.128 11.8126 4.256C12.7433 4.525 13.6177 5.008 14.3425 5.655C14.6832 5.962 15.1979 6.017 15.6033 5.797L16.8173 5.136L17.8785 6.865L16.6857 7.514C16.275 7.738 16.0723 8.19 16.1869 8.622C16.3058 9.074 16.3673 9.538 16.3673 10C16.3673 10.461 16.3058 10.925 16.1859 11.378C16.0723 11.811 16.275 12.263 16.6857 12.486L17.8775 13.135L16.8184 14.864L15.6033 14.203C15.1968 13.982 14.6832 14.037 14.3425 14.345C13.6177 14.992 12.7433 15.476 11.8126 15.744C11.3658 15.872 11.0612 16.261 11.0612 16.7L11.0633 18H8.93878V16.7C8.93878 16.261 8.6342 15.872 8.18743 15.744C7.25673 15.475 6.38229 14.992 5.65747 14.345C5.45584 14.163 5.19265 14.07 4.92735 14.07C4.74482 14.07 4.56229 14.114 4.39674 14.204L3.18269 14.866L2.12147 13.137L3.31429 12.486C3.72498 12.263 3.92767 11.811 3.81412 11.378Z" fill="black"/>
</svg>
