<svg width="21" height="15" viewBox="0 0 21 15" fill="none" xmlns="http://www.w3.org/2000/svg">
<path d="M5.50002 6.00003C5.27702 6.00003 5.06302 6.03403 4.85002 6.06503C4.91902 5.83303 4.99002 5.59703 5.10402 5.38503C5.21802 5.07703 5.39602 4.81003 5.57302 4.54103C5.72102 4.25003 5.98202 4.05303 6.17402 3.80403C6.37502 3.56203 6.64902 3.40103 6.86602 3.20003C7.07902 2.99003 7.35802 2.88503 7.58002 2.73703C7.81202 2.60403 8.01402 2.45703 8.23002 2.38703C8.43802 2.30103 8.62002 2.22703 8.76902 2.16503C9.07102 2.04003 9.24302 1.96803 9.24302 1.96803L8.75802 0.0300293C8.75802 0.0300293 8.54002 0.0820289 8.16102 0.174029C7.97002 0.222029 7.73702 0.278029 7.47202 0.345029C7.20102 0.395029 6.91202 0.532029 6.59002 0.657029C6.27202 0.799029 5.90402 0.895029 5.56202 1.12303C5.21802 1.34103 4.82102 1.52303 4.47102 1.81503C4.13202 2.11603 3.72302 2.37703 3.42102 2.76003C3.09102 3.11803 2.76502 3.49403 2.51202 3.92203C2.21902 4.33003 2.02002 4.77803 1.81002 5.22103C1.62002 5.66403 1.46702 6.11703 1.34202 6.55703C1.10502 7.43903 0.999023 8.27703 0.958023 8.99403C0.924023 9.71203 0.944023 10.309 0.986023 10.741C1.00102 10.945 1.02902 11.143 1.04902 11.28C1.06602 11.389 1.07402 11.448 1.07402 11.448L1.10002 11.442C1.53502 13.474 3.33802 15 5.50002 15C7.98502 15 10 12.985 10 10.5C10 8.01503 7.98502 6.00003 5.50002 6.00003ZM16.5 6.00003C16.277 6.00003 16.063 6.03403 15.85 6.06503C15.919 5.83303 15.99 5.59703 16.104 5.38503C16.218 5.07703 16.396 4.81003 16.573 4.54103C16.721 4.25003 16.982 4.05303 17.174 3.80403C17.375 3.56203 17.649 3.40103 17.866 3.20003C18.079 2.99003 18.358 2.88503 18.58 2.73703C18.812 2.60403 19.014 2.45703 19.23 2.38703C19.438 2.30103 19.62 2.22703 19.769 2.16503C20.071 2.04003 20.243 1.96803 20.243 1.96803L19.758 0.0300293C19.758 0.0300293 19.54 0.0820289 19.161 0.174029C18.97 0.222029 18.737 0.278029 18.472 0.345029C18.201 0.395029 17.912 0.532029 17.59 0.657029C17.273 0.800029 16.904 0.895029 16.562 1.12403C16.218 1.34203 15.821 1.52403 15.471 1.81603C15.132 2.11703 14.723 2.37803 14.421 2.76003C14.091 3.11803 13.765 3.49403 13.512 3.92203C13.219 4.33003 13.02 4.77803 12.81 5.22103C12.62 5.66403 12.467 6.11703 12.342 6.55703C12.105 7.43903 11.999 8.27703 11.958 8.99403C11.924 9.71203 11.944 10.309 11.986 10.741C12.001 10.945 12.029 11.143 12.049 11.28C12.066 11.389 12.074 11.448 12.074 11.448L12.1 11.442C12.535 13.474 14.338 15 16.5 15C18.985 15 21 12.985 21 10.5C21 8.01503 18.985 6.00003 16.5 6.00003Z" fill="#669CDF"/>
</svg>
