<svg width="40" height="24" viewBox="0 0 40 24" fill="none" xmlns="http://www.w3.org/2000/svg">
<path d="M39.0829 1.62527C39.3623 0.687616 39.0829 0 37.7614 0H33.3838C32.27 0 31.7609 0.594859 31.4815 1.24819C31.4815 1.24819 29.2558 6.73097 26.1018 10.286C25.0838 11.3204 24.6187 11.6471 24.0637 11.6471C23.7863 11.6471 23.3831 11.3205 23.3831 10.3828V1.62527C23.3831 0.500084 23.0617 0 22.1335 0H15.2547C14.56 0 14.1408 0.520249 14.1408 1.0163C14.1408 2.081 15.7178 2.327 15.8795 5.32751V11.8367C15.8795 13.2623 15.626 13.5224 15.067 13.5224C13.5839 13.5224 9.97483 8.01949 7.83294 1.72005C7.41574 0.496051 6.99455 0.00201728 5.8767 0.00201728H1.50111C0.249521 0.00201728 0 0.596875 0 1.25021C0 2.4238 1.48315 8.23122 6.90872 15.9119C10.5258 21.1568 15.618 24 20.2571 24C23.0377 24 23.3811 23.3688 23.3811 22.28V18.3156C23.3811 17.0533 23.6465 16.7992 24.5269 16.7992C25.1736 16.7992 26.2875 17.1299 28.8845 19.6565C31.8508 22.653 32.3418 23.998 34.0086 23.998H38.3842C39.6338 23.998 40.2586 23.3668 39.8993 22.1207C39.5061 20.8805 38.0888 19.0758 36.2084 16.9403C35.1864 15.7224 33.6593 14.4117 33.1942 13.7563C32.5454 12.9114 32.7331 12.5384 33.1942 11.7883C33.1942 11.7883 38.5279 4.20434 39.0829 1.62527Z" fill="#202020"/>
</svg>
