<svg width="21" height="20" viewBox="0 0 21 20" fill="none" xmlns="http://www.w3.org/2000/svg">
<path d="M20.6452 11.0323C20.6452 11.0323 20.6452 10.9677 20.6452 11.0323C20.6452 10.9677 20.6452 10.9677 20.6452 10.9677C20.6452 10.9032 20.6452 10.8387 20.6452 10.7742L18.0645 3.03226C18.0645 3.03226 18.0645 2.96774 18 2.96774C18 2.90323 17.9355 2.90323 17.9355 2.83871L17.871 2.77419C17.8065 2.70968 17.8065 2.70968 17.7419 2.70968C17.7419 2.70968 17.6774 2.70968 17.6774 2.64516C17.5484 2.58065 17.4839 2.58065 17.4194 2.58065H12.129C11.9355 2.06452 11.4839 1.6129 10.9677 1.41935V0.645161C10.9677 0.258064 10.7097 0 10.3226 0C9.93548 0 9.67742 0.258064 9.67742 0.645161V1.41935C9.16129 1.6129 8.70968 2.06452 8.51613 2.58065H3.22581C3.16129 2.58065 3.09677 2.58065 2.96774 2.64516C2.96774 2.64516 2.90323 2.64516 2.90323 2.70968C2.83871 2.70968 2.83871 2.77419 2.77419 2.77419L2.70968 2.83871C2.70968 2.83871 2.70968 2.90323 2.64516 2.90323C2.64516 2.90323 2.64516 2.96774 2.58065 2.96774L0 10.7097C0 10.7742 0 10.8387 0 10.9032V10.9677V11.0323C0.0645161 12.7742 1.48387 14.1935 3.22581 14.1935C4.96774 14.1935 6.3871 12.7742 6.45161 11.0968V11.0323V10.9677C6.45161 10.9032 6.45161 10.8387 6.45161 10.7742L4.12903 3.87097H8.51613C8.70968 4.3871 9.16129 4.83871 9.67742 5.03226V12.9032C8.96774 12.9032 8.3871 13.4839 8.3871 14.1935V16.7742H6.70968C5.87097 16.7742 5.16129 17.2903 4.90323 18.129L4.58065 19.1613C4.45161 19.3548 4.51613 19.5484 4.64516 19.7419C4.77419 19.871 4.96774 20 5.16129 20H15.4839C15.6774 20 15.871 19.871 16 19.7419C16.129 19.5484 16.129 19.3548 16.0645 19.1613L15.7419 18.129C15.4839 17.2903 14.7742 16.7742 13.9355 16.7742H12.2581V14.1935C12.2581 13.4839 11.6774 12.9032 10.9677 12.9032V5.03226C11.4839 4.83871 11.9355 4.3871 12.129 3.87097H16.5161L14.1935 10.7742C14.1935 10.8387 14.1935 10.9032 14.1935 10.9677V11.0323V11.0968C14.2581 12.8387 15.6774 14.1935 17.4194 14.1935C19.1613 14.1935 20.5806 12.7742 20.6452 11.0323ZM1.54839 10.3226L3.22581 5.29032L4.90323 10.3226H1.54839ZM10.3226 3.87097C9.93548 3.87097 9.67742 3.6129 9.67742 3.22581C9.67742 2.83871 9.93548 2.58065 10.3226 2.58065C10.7097 2.58065 10.9677 2.83871 10.9677 3.22581C10.9677 3.6129 10.7097 3.87097 10.3226 3.87097ZM17.4194 5.29032L19.0968 10.3226H15.7419L17.4194 5.29032Z" fill="black"/>
</svg>
